<?xml version="1.0" encoding="UTF-8"?>
<svg id="_レイヤー_2" xmlns="http://www.w3.org/2000/svg" version="1.1" viewBox="0 0 1923.5 946.9">
  <!-- Generator: Adobe Illustrator 29.0.0, SVG Export Plug-In . SVG Version: 2.1.0 Build 186)  -->
  <defs>
    <style>
      .st0 {
        fill: #d48d95;
      }
    </style>
  </defs>
  <g id="img_x5F_about">
    <path class="st0" d="M1923,111.5c-59.6-50.7-131.9-87.9-208.7-104-69.7-14.6-148.5-10.5-206.1,35.8-56.4,45.3-80.5,117.3-112,179.8-17.7,35.1-39.9,70.9-76.8,88.2-36.6,17.2-79.2,13.9-117,2.8-78.6-23-141.7-82.5-223.7-96.3-78.8-13.3-155.7,12.6-215.8,63.9-30.1,25.7-56,55.8-80.7,86.6-27.2,34-53.7,68.6-79.6,103.6-52.2,70.5-99.9,143.8-148.6,216.6-45.4,67.8-96.5,132.3-168.4,173.6-69.7,40.1-149.3,58.5-227.7,72.4-18.9,3.3-37.9,6.4-56.9,9.5-1.9.3-1.1,3.2.8,2.9,77.7-12.5,156.4-25.5,229.7-55.2,34.7-14.1,67.9-32.1,97.7-55,30.2-23.2,56.4-51.1,80-80.8,50.9-64.3,92.2-135.9,139-203.1,50.6-72.5,102.9-145,160.7-212,26.2-30.4,54.9-59.3,88.6-81.5,35.2-23.2,75.5-37.5,117.6-41.1,42.8-3.6,84.9,4.2,124.2,21.1,39.3,16.9,72.5,38.4,109.3,56.5,61,30,142.2,49.5,199.2.5,27.7-23.9,44.4-57.7,59.9-90.1,15.7-32.8,30.2-66.4,49.2-97.6,19.6-32.1,44.6-61.1,77.8-79.6,33.9-18.9,73-26.2,111.5-26,79.6.5,159.3,30.7,225.4,73.8,17.2,11.2,33.6,23.6,49.2,36.8,1.5,1.2,3.6-.9,2.1-2.1h0Z"/>
  </g>
</svg>