<?xml version="1.0" encoding="UTF-8"?>
<svg id="_レイヤー_2" xmlns="http://www.w3.org/2000/svg" version="1.1" viewBox="0 0 1926 1136.9">
  <!-- Generator: Adobe Illustrator 29.0.0, SVG Export Plug-In . SVG Version: 2.1.0 Build 186)  -->
  <defs>
    <style>
      .st0 {
        fill: #d48d95;
      }
    </style>
  </defs>
  <g id="img_x5F_about">
    <path class="st0" d="M1923,1.5c-3,96.1-6.4,195-40.2,286.1-30.2,81.5-87.9,151.2-168.6,186.5-37.2,16.2-78.4,24-118.8,18.8s-76.5-24.3-108.9-48.4c-62.7-46.7-116-112.5-195.4-130.9s-163.5,18.5-226.5,69.4c-67.8,54.9-116.6,126.5-162.2,199.8-89.6,144-169.1,303.5-307.7,407.7-150,112.9-343.6,132.8-525.2,140.8s-45.3,1.8-68,2.6c-1.9,0-1.9,3.1,0,3,181.9-6.2,376.4-13.5,538.3-106.6,151-86.8,240.6-239.8,327.8-384.7,45.3-75.2,90.2-153,151.4-216.6,60.6-62.9,142.7-120.7,233.9-117.5,89.4,3.1,149.5,69,214.3,121.6,30.1,24.4,63,46.6,100.7,57.1s74.8,9.1,111-.6c75.8-20.4,142-75.7,180.2-143.6,46.8-83.3,59.1-180.3,64.1-274.2,1.2-23.5,2-46.9,2.7-70.4,0-1.9-2.9-1.9-3,0h.1Z"/>
  </g>
</svg>