<?xml version="1.0" encoding="UTF-8"?>
<svg id="_レイヤー_2" data-name="レイヤー_2" xmlns="http://www.w3.org/2000/svg" width="44.15" height="44.34" viewBox="0 0 44.15 44.34">
  <defs>
    <style>
      .cls-1 {
        fill: #555;
      }
    </style>
  </defs>
  <g id="img_x5F_about">
    <path class="cls-1" d="M22.08,0C9.9,0,0,9.94,0,22.17s9.9,22.17,22.08,22.17,22.08-9.94,22.08-22.17S34.26,0,22.08,0ZM22.08,1.93c11.14,0,20.16,9.05,20.16,20.24s-9.01,20.24-20.16,20.24S1.92,33.36,1.92,22.17,10.93,1.93,22.08,1.93ZM12.59,14.54c-.69,0-1.44.21-2.12.62-2.94,1.8-4.85,5.91-4.46,9.05.12,1,.53,2.08,1.31,2.82.52.49,1.47,1.09,2.59,1.09,1.21,0,2.23-.47,3.15-1.05.62-.4,1.14-.88,1.58-1.38.31.65.95,1.1,1.61,1.1.52,0,1.01-.26,1.38-.75.11.45.42.75.98.75.41,0,1.28-.41,2.09-1.02l-.08.43c-.02.09-.03.19-.02.28.02.21.17.3.35.3.39,0,.96-.38,1.08-.96l.18-.82c.23-1.03,1.73-2.59,2.16-2.59.05,0,.1.04.11.11.03.26-.48,1.13-.7,2.52-.04.24-.05.48-.02.71.07.62.44,1.03,1.11,1.03.58,0,1.82-.49,2.7-1.46.07.54.18,1.01.35,1.3.07.13.24.17.39.17.19,0,.45-.07.73-.22.67-.38,1.55-1.22,2.38-2.44.11.02.2.02.31.02.33,0,.71-.12,1.06-.34-.13.42-.18.85-.13,1.25.12.98.95,1.73,1.81,1.73.5,0,.99-.26,1.36-.73.11.62.51,1.28,1.47,1.67.06.04.14.04.19.04.19,0,.3-.13.28-.28,0-.06-.06-.15-.14-.23-.23-.21-.48-.56-.54-1.11-.03-.26-.02-.58.07-.96.21-.88.25-1.13.24-1.24-.03-.23-.19-.32-.37-.32-.39,0-.92.39-1.06.94-.22.83-.8,1.39-1.19,1.39-.48,0-.73-.53-.8-1.07-.17-1.35.69-3.02,1.94-3.02.37,0,.76.15.81.53.07.58-.54.45-.51.69.03.24.45.32.73.32s1.09-.19.98-1.14c-.09-.75-.88-1.11-1.79-1.11-1.07,0-1.98.55-2.61,1.3-.08.05-.17.13-.26.24-.21.24-.58.47-1.06.47-.06,0-.19-.02-.19-.02.31-.62.54-1.26.54-1.82,0-.9-.56-1.35-1.17-1.35-.78,0-1.58.7-1.58,2.05,0,.81.32,1.46.88,1.82-.63,1.05-1.51,1.92-1.64,1.92-.07,0-.09-.08-.11-.15-.09-.36-.19-1.05-.19-1.48,0-.77.15-1.54.43-2.36.04-.09.06-.19.06-.26,0-.22-.15-.34-.35-.34-.41,0-1.02.47-1.17.96-.15.47-.2,1.11-.2,1.9,0,.15,0,.29,0,.43-.76,1.01-1.7,1.36-1.99,1.36-.37,0-.44-.3-.39-.5.2-.95.5-2.05.76-2.78.12-.36.18-.67.16-.86-.04-.34-.29-.51-.6-.51-.74,0-1.99.79-2.79,1.86l.25-1.16c.02-.11.03-.21.02-.28-.03-.23-.17-.32-.35-.32-.91,0-1.08.46-1.16.92-.02.11-.29,1.49-.5,2.6-.68.62-1.42,1.01-1.62,1.01-.25,0-.34-.2-.34-.35,0-.17.18-.98.22-1.23.02-.11.03-.21.02-.28-.02-.21-.17-.3-.37-.3-.39,0-.92.37-1.06.94-.22.83-.78,1.39-1.17,1.39-.48,0-.75-.52-.82-1.05-.14-1.17.6-3.04,1.94-3.04.37,0,.76.13.81.51.07.6-.52.45-.49.71.03.24.45.32.71.32.3,0,1.09-.19.98-1.13-.09-.75-.86-1.13-1.79-1.13-2.15,0-3.6,2.13-3.46,3.82-.56.65-1.11,1.05-2.09,1.55-.56.28-1.19.45-1.79.45-1.79,0-2.66-1.65-2.83-3.08-.45-3.66,2.76-8.69,4.99-8.69.52,0,.99.45,1.07,1.16.13,1.1.11,1.88-1.02,2.84-.12.1-.16.27-.1.37.1.15.4.16,1.02-.15,1.21-.61,1.64-1.56,1.51-2.65-.15-1.21-1.2-2.23-2.62-2.23ZM30.93,20.69c.2,0,.46.3.46.98,0,.36-.07.71-.2,1.07-.33-.36-.6-.9-.6-1.43,0-.28.09-.62.34-.62Z"/>
  </g>
</svg>