<?xml version="1.0" ?><svg viewBox="0 0 22.105 22.105" xmlns="http://www.w3.org/2000/svg"><defs><style>.cls-1{fill:#1a171b;}</style></defs><g data-name="Layer 2" id="Layer_2"><g data-name="Layer 1" id="Layer_1-2"><path class="cls-1" d="M20.877,3.126H19.2V.335A.335.335,0,0,0,18.867,0H3.238A.335.335,0,0,0,2.9.335V3.126H1.228A1.23,1.23,0,0,0,0,4.354V18.2a1.23,1.23,0,0,0,1.228,1.228H6.7v2.01H4.354a.335.335,0,1,0,0,.669h13.4a.335.335,0,0,0,0-.669H15.406v-2.01h5.471A1.23,1.23,0,0,0,22.105,18.2V4.354A1.23,1.23,0,0,0,20.877,3.126Zm0,.67a.558.558,0,0,1,.558.558V16.077H19.2V3.8ZM3.572.67h14.96V16.077H3.572ZM.67,4.354A.558.558,0,0,1,1.228,3.8H2.9V16.077H.67ZM14.737,21.436H7.368v-2.01h7.369Zm6.7-3.238a.558.558,0,0,1-.558.558H1.228A.558.558,0,0,1,.67,18.2V16.747H21.435ZM16.62,3.8H5.484a.335.335,0,0,1,0-.67H16.62A.335.335,0,0,1,16.62,3.8ZM13.283,1.658a.339.339,0,0,1-.236.576C12.419,2.174,12.791,1.271,13.283,1.658Zm1.55-.094a.335.335,0,0,1,0,.67A.335.335,0,0,1,14.833,1.564Zm2.023.094a.34.34,0,0,1-.237.576C15.991,2.174,16.363,1.271,16.856,1.658ZM12.7,7.013l-2.68,6.252A.335.335,0,1,1,9.4,13l2.679-6.252a.335.335,0,0,1,.616.264ZM8.468,8.247l-1.956,1.76,1.956,1.761a.335.335,0,0,1-.448.5l-2.233-2.01a.335.335,0,0,1,0-.5L8.02,7.748a.335.335,0,0,1,.448.5Zm7.849,1.511a.336.336,0,0,1,0,.5l-2.233,2.009a.335.335,0,0,1-.448-.5l1.957-1.761-1.957-1.76a.335.335,0,0,1,.448-.5Z" data-name="custom coding" id="custom_coding"/></g></g></svg>