<?xml version="1.0" encoding="UTF-8"?>
<svg id="_レイヤー_1" data-name="レイヤー_1" xmlns="http://www.w3.org/2000/svg" version="1.1" viewBox="0 0 22.1 22.1">
  <!-- Generator: Adobe Illustrator 29.1.0, SVG Export Plug-In . SVG Version: 2.1.0 Build 142)  -->
  <defs>
    <style>
      .st0 {
        fill: #555;
      }
    </style>
  </defs>
  <g id="Layer_2">
    <g id="Layer_1-2">
      <path id="custom_coding" class="st0" d="M20.9,3.1h-1.7V.3c0-.2-.1-.3-.3-.3H3.2c-.2,0-.3.1-.3.3,0,0,0,0,0,0v2.8h-1.7c-.7,0-1.2.6-1.2,1.2v13.8c0,.7.6,1.2,1.2,1.2h5.5v2h-2.3c-.2,0-.3.1-.4.3,0,.2.1.3.3.4,0,0,0,0,0,0h13.4c.2,0,.3-.2.3-.4,0-.2-.1-.3-.3-.3h-2.3v-2h5.5c.7,0,1.2-.6,1.2-1.2V4.4c0-.7-.6-1.2-1.2-1.2ZM20.9,3.8c.3,0,.6.2.6.6h0v11.7h-2.2V3.8h1.7ZM3.6.7h15v15.4H3.6V.7ZM.7,4.4c0-.3.3-.6.6-.6h1.7v12.3H.7V4.4ZM14.7,21.4h-7.4v-2h7.4v2ZM21.4,18.2c0,.3-.2.6-.6.6H1.2c-.3,0-.6-.2-.6-.6v-1.5h20.8v1.5ZM16.6,3.8H5.5c-.2,0-.3-.1-.3-.3s.1-.3.3-.3h11.1c.2,0,.3.1.3.3s-.1.3-.3.3ZM13.3,1.7c.1.1.1.3,0,.5,0,0-.1,0-.2,0-.6,0-.3-1,.2-.6ZM14.8,1.6c.2,0,.3.2.3.3,0,.2-.1.3-.3.3-.2,0-.3-.2-.3-.3,0-.2.1-.3.3-.3ZM16.9,1.7c.1.1.1.4,0,.5,0,0-.1,0-.2,0-.6,0-.3-1,.2-.6ZM12.7,7l-2.7,6.3c0,.2-.3.3-.4.2-.2,0-.3-.3-.2-.4l2.7-6.3c0-.2.3-.2.4-.2.2,0,.2.3.2.4h0ZM8.5,8.2l-2,1.8,2,1.8c.1.1.1.3,0,.5s-.3.1-.5,0h0l-2.2-2c-.1-.1-.2-.3,0-.5,0,0,0,0,0,0l2.2-2c.1-.1.4-.1.5,0s.1.4,0,.5h0ZM16.3,9.8c.1.1.1.3,0,.5,0,0,0,0,0,0l-2.2,2c-.1.1-.4.1-.5,0s-.1-.4,0-.5l2-1.8-2-1.8c-.1-.1-.1-.3,0-.5s.3-.1.5,0l2.2,2Z"/>
    </g>
  </g>
</svg>