<?xml version="1.0" encoding="UTF-8"?>
<svg id="_レイヤー_2" data-name="レイヤー_2" xmlns="http://www.w3.org/2000/svg" viewBox="0 0 2267.58 963.55">
  <defs>
    <style>
      .cls-1 {
        fill: #d48d95;
      }
    </style>
  </defs>
  <g id="img_x5F_works">
    <path class="cls-1" d="M2.86,154.64C53.62,82.48,132.03,33.39,217.44,13.24,259.59,3.3,303.55.38,346.61,5.36c43.4,5.02,89.59,17.39,126.43,41.6,20.49,13.47,40.02,33.36,41.07,59.3,1.19,29.47-20.97,53.29-40.8,72.24-31.28,29.9-67.38,57.91-88.57,96.46-20.59,37.45-18.06,79.99,6.81,114.81,28.08,39.31,72.86,59.13,116.97,74.94,52.79,18.92,104.34,38.71,153.47,66.07,24.42,13.61,48.13,28.52,70.97,44.64,21.25,15,43.04,30.55,60.87,49.63,20.55,22,30.55,47.86,25.62,77.99-4.03,24.65-14.49,47.86-17.02,72.81-4.55,44.71,20.58,87.6,55.1,114.33,40.37,31.26,91.99,43.19,141.65,49.62,56.63,7.34,113.96,6.74,170.8,2.17,113.69-9.14,225.51-33.64,339.2-42.83,57.78-4.68,115.66-4.82,173.29,1.89s119.29,19.92,178.49,32.15c107.5,22.22,219.25,42.68,328.67,21.38,26.4-5.14,52.14-12.84,76.98-23.15,1.76-.73.99-3.63-.8-2.89-108.01,44.85-227.93,35.14-340.27,14.4-114.63-21.16-227.55-51.63-345.01-50.24-115.63,1.36-229.31,25.16-343.69,39.33-57.41,7.11-115.29,11.88-173.17,9.94-56.63-1.9-117.12-8.13-168.94-32.69-47.39-22.47-89.85-67.22-89.83-122.6.02-48.6,35.17-93.9,8.1-141.19-11.87-20.74-30.69-36.56-49.3-51.03-20.07-15.6-40.91-30.22-62.39-43.82-45.11-28.55-93.14-52.5-143.06-71.39-51.35-19.43-108.57-32.83-148.64-72.89-18.49-18.49-32.9-42.25-35.74-68.65-2.6-24.15,4.82-47.63,17.46-68.01,24.97-40.28,64.8-67.33,96.61-101.52,14.52-15.61,27.87-34.52,29.13-56.5,1.12-19.47-8.21-37.07-21.63-50.6-28.78-29-72.78-43.76-111.78-52.5-40.48-9.08-82.54-10.8-123.7-5.87C177.43,12.57,97.52,48.93,38.41,107.73c-14.05,13.98-26.74,29.2-38.14,45.4-1.11,1.58,1.49,3.08,2.59,1.51h0Z"/>
  </g>
</svg>