<?xml version="1.0" encoding="UTF-8"?>
<svg id="_レイヤー_2" data-name="レイヤー_2" xmlns="http://www.w3.org/2000/svg" width="1922.75" height="817.17" viewBox="0 0 1922.75 817.17">
  <defs>
    <style>
      .cls-1 {
        fill: #d48d95;
      }
    </style>
  </defs>
  <g id="img_x5F_works">
    <path class="cls-1" d="M2.66,131.3C45.68,70.15,112.14,28.55,184.51,11.47c35.73-8.43,72.99-10.9,109.48-6.68,36.78,4.26,75.91,14.74,107.13,35.25,17.34,11.39,33.86,28.22,34.75,50.17,1.01,24.95-17.77,45.12-34.55,61.16-26.53,25.36-57.14,49.11-75.11,81.81-17.48,31.79-15.34,67.91,5.77,97.46,23.83,33.36,61.81,50.18,99.25,63.6,44.74,16.04,88.44,32.81,130.09,56.01,20.71,11.54,40.8,24.18,60.17,37.84,18.01,12.71,36.47,25.89,51.58,42.06,17.39,18.62,25.86,40.5,21.69,66-3.42,20.91-12.29,40.6-14.44,61.76-3.86,37.95,17.47,74.35,46.78,97.04,34.25,26.52,78.03,36.63,120.16,42.09,48.01,6.22,96.62,5.71,144.8,1.84,96.39-7.75,191.2-28.52,287.58-36.32,48.99-3.96,98.06-4.09,146.92,1.61,50.95,5.94,101.12,16.89,151.29,27.26,91.17,18.84,185.93,36.19,278.72,18.13,22.38-4.36,44.21-10.88,65.27-19.63,1.64-.68.92-3.38-.74-2.69-91.55,38.01-193.2,29.78-288.43,12.21s-192.94-43.77-292.54-42.6c-98.04,1.15-194.41,21.33-291.39,33.35-48.67,6.03-97.74,10.07-146.82,8.43-47.99-1.61-99.26-6.88-143.17-27.7-40.14-19.03-76.12-56.92-76.1-103.84.01-41.24,29.82-79.63,6.85-119.77-10.07-17.59-26.03-31.01-41.82-43.29-17.03-13.24-34.7-25.64-52.93-37.17-38.26-24.21-78.98-44.52-121.32-60.54-43.52-16.47-92.01-27.82-125.96-61.77-15.65-15.65-27.85-35.77-30.27-58.11-2.21-20.45,4.08-40.34,14.79-57.6,21.17-34.14,54.93-57.06,81.89-86.05,12.33-13.26,23.66-29.32,24.73-47.99.95-16.54-6.97-31.5-18.37-42.98-24.42-24.6-61.74-37.13-94.82-44.55C291.07-.42,255.4-1.89,220.49,2.29,150.52,10.66,82.75,41.49,32.61,91.37c-11.92,11.86-22.69,24.77-32.36,38.52-1.04,1.47,1.38,2.87,2.41,1.41h0Z"/>
  </g>
</svg>