<?xml version="1.0" encoding="UTF-8"?>
<svg id="_レイヤー_2" data-name="レイヤー_2" xmlns="http://www.w3.org/2000/svg" width="767.74" height="326.08" viewBox="0 0 767.74 326.08">
  <defs>
    <style>
      .cls-1 {
        fill: #d48d95;
      }
    </style>
  </defs>
  <g id="img_x5F_works">
    <path class="cls-1" d="M.72,52.18C17.93,27.71,44.51,11.06,73.47,4.22,87.76.85,102.66-.14,117.25,1.55s30.39,5.9,42.89,14.11c6.98,4.59,13.62,11.36,13.97,20.2.4,10.02-7.11,18.12-13.86,24.56-10.59,10.12-22.8,19.6-29.98,32.64s-6.09,26.99,2.31,38.75c9.49,13.28,24.63,19.98,39.54,25.32,17.89,6.41,35.36,13.12,52.01,22.39,8.27,4.61,16.3,9.66,24.04,15.12,7.21,5.09,14.6,10.36,20.64,16.83,7,7.49,10.39,16.29,8.71,26.54-1.37,8.34-4.9,16.19-5.76,24.63-1.54,15.1,6.94,29.58,18.6,38.61,13.65,10.58,31.11,14.61,47.91,16.79,19.18,2.49,38.6,2.28,57.85.73,38.5-3.1,76.38-11.39,114.88-14.51,19.57-1.58,39.17-1.63,58.69.64s40.43,6.75,60.49,10.9c36.39,7.52,74.21,14.45,111.25,7.24,8.94-1.74,17.66-4.35,26.07-7.84.44-.18.25-.91-.2-.72-36.6,15.2-77.25,11.9-115.32,4.88-38.81-7.16-77.04-17.48-116.82-17.01s-77.66,8.52-116.4,13.32c-19.44,2.41-39.05,4.02-58.65,3.37s-39.71-2.76-57.29-11.09c-16.09-7.63-30.5-22.83-30.49-41.64,0-16.42,11.91-31.78,2.76-47.75-4.01-7.01-10.38-12.36-16.68-17.25-6.79-5.28-13.84-10.22-21.11-14.82-15.27-9.66-31.52-17.77-48.42-24.17s-36.81-11.13-50.4-24.72c-6.29-6.29-11.18-14.37-12.14-23.34-.88-8.2,1.64-16.18,5.93-23.1,8.46-13.65,21.96-22.82,32.74-34.41,4.89-5.26,9.4-11.64,9.83-19.04.38-6.56-2.76-12.49-7.29-17.04-9.73-9.81-24.61-14.79-37.8-17.75s-27.93-3.65-41.86-1.98c-27.9,3.34-54.93,15.64-74.93,35.53C8.21,41.17,3.92,46.32.07,51.8c-.28.4.37.77.65.38h0Z"/>
  </g>
</svg>