<?xml version="1.0" encoding="UTF-8"?>
<svg id="_レイヤー_1" data-name="レイヤー_1" xmlns="http://www.w3.org/2000/svg" viewBox="0 0 173.44 226.5">
  <defs>
    <style>
      .cls-1 {
        fill: #1f1f1f;
      }
    </style>
  </defs>
  <path class="cls-1" d="M172.49,51.82L121.62.95C120.99.32,120.16,0,119.33,0c0,0,0,0,0,0H15.88C7.12,0,0,7.12,0,15.88v194.73c0,8.76,7.12,15.88,15.88,15.88h141.68c8.76,0,15.88-7.12,15.88-15.88V54.12h0c0-.83-.32-1.66-.95-2.3ZM6.5,106.14h160.44v65.09H6.5v-65.09ZM122.57,11.1l39.77,39.77h-39.77V11.1ZM15.88,6.5h100.19v47.62c0,1.79,1.46,3.25,3.25,3.25h47.62v42.27H6.5V15.88c0-5.17,4.21-9.38,9.38-9.38ZM157.56,220H15.88c-5.17,0-9.38-4.21-9.38-9.38v-32.89h160.44v32.89c0,5.17-4.21,9.38-9.38,9.38Z"/>
  <path class="cls-1" d="M95.32,137.91l-.04-.03-5.87-3.05-.23-.11c-2.55-1.21-4.22-2.14-4.22-3.96,0-2.26,1.73-4.02,3.94-4.02,1.97,0,3.44.86,4.62,2.69l.69,1.42,4.49-2.82-.79-1.43c-1.73-3.12-5.22-5.14-8.88-5.14-5.48,0-9.46,3.95-9.46,9.38,0,2.9,1.37,5.28,3.97,6.89l.04.02,5.53,2.93.55.27c2.67,1.29,4.56,2.36,4.56,4.29,0,2.97-2.56,5.38-5.7,5.38-2.59,0-4.49-1.44-5.64-4.29l-.39-1.41-5.17,1.66.61,1.69c1.7,4.71,5.73,7.63,10.52,7.63,6.06,0,11.18-4.81,11.18-10.5,0-3.22-1.4-5.67-4.29-7.49Z"/>
  <path class="cls-1" d="M124.49,137.91l-.04-.03-5.87-3.05-.23-.11c-2.55-1.21-4.22-2.14-4.22-3.96,0-2.26,1.73-4.02,3.94-4.02,1.97,0,3.44.86,4.62,2.69l.69,1.42,4.49-2.82-.79-1.43c-1.73-3.12-5.22-5.14-8.88-5.14-5.48,0-9.46,3.95-9.46,9.38,0,2.9,1.37,5.28,3.97,6.89l.04.02,5.53,2.93.55.27c2.67,1.29,4.56,2.36,4.56,4.29,0,2.97-2.56,5.38-5.7,5.38-2.59,0-4.49-1.44-5.64-4.29l-.39-1.41-5.17,1.66.61,1.69c1.7,4.71,5.73,7.63,10.52,7.63,6.06,0,11.18-4.81,11.18-10.5,0-3.22-1.4-5.67-4.29-7.49Z"/>
  <path class="cls-1" d="M60.16,126.46c2.21,0,4.8,1.17,6.6,2.98l.9.91,3.58-3.58-.92-.99c-2.69-2.87-6.36-4.51-10.06-4.51-8.6,0-15.6,7.83-15.6,17.46s7.13,17.37,15.57,17.37c3.63,0,7.1-1.48,10.03-4.29l.52-.5v-1.17l-3.04-3.04-.9.88c-1.8,1.75-4.48,2.93-6.67,2.93-2.48,0-5.21-1.37-7.3-3.66-2.03-2.3-3.15-5.27-3.15-8.36,0-6.74,4.78-12.43,10.44-12.43Z"/>
</svg>