<?xml version="1.0" encoding="UTF-8"?>
<svg id="_レイヤー_2" data-name="レイヤー_2" xmlns="http://www.w3.org/2000/svg" width="31.56" height="41.22" viewBox="0 0 31.56 41.22">
  <defs>
    <style>
      .cls-1 {
        fill: #555;
      }
    </style>
  </defs>
  <g id="img_x5F_about">
    <g>
      <path class="cls-1" d="M31.39,9.43L22.13.17C22.02.06,21.86,0,21.71,0c0,0,0,0,0,0H2.89C1.3,0,0,1.3,0,2.89v35.44c0,1.59,1.3,2.89,2.89,2.89h25.78c1.59,0,2.89-1.3,2.89-2.89V9.85h0c0-.15-.06-.3-.17-.42ZM1.18,19.31h29.19v11.84H1.18v-11.84ZM22.3,2.02l7.24,7.24h-7.24V2.02ZM2.89,1.18h18.23v8.66c0,.33.26.59.59.59h8.66v7.69H1.18V2.89c0-.94.77-1.71,1.71-1.71ZM28.67,40.03H2.89c-.94,0-1.71-.77-1.71-1.71v-5.98h29.19v5.98c0,.94-.77,1.71-1.71,1.71Z"/>
      <path class="cls-1" d="M17.35,25.1h0s-1.07-.56-1.07-.56l-.04-.02c-.46-.22-.77-.39-.77-.72,0-.41.32-.73.72-.73.36,0,.63.16.84.49l.13.26.82-.51-.14-.26c-.31-.57-.95-.93-1.62-.93-1,0-1.72.72-1.72,1.71,0,.53.25.96.72,1.25h0s1.01.54,1.01.54l.1.05c.49.24.83.43.83.78,0,.54-.47.98-1.04.98-.47,0-.82-.26-1.03-.78l-.07-.26-.94.3.11.31c.31.86,1.04,1.39,1.91,1.39,1.1,0,2.03-.88,2.03-1.91,0-.59-.25-1.03-.78-1.36Z"/>
      <path class="cls-1" d="M22.65,25.1h0s-1.07-.56-1.07-.56l-.04-.02c-.46-.22-.77-.39-.77-.72,0-.41.32-.73.72-.73.36,0,.63.16.84.49l.13.26.82-.51-.14-.26c-.31-.57-.95-.93-1.62-.93-1,0-1.72.72-1.72,1.71,0,.53.25.96.72,1.25h0s1.01.54,1.01.54l.1.05c.49.24.83.43.83.78,0,.54-.47.98-1.04.98-.47,0-.82-.26-1.03-.78l-.07-.26-.94.3.11.31c.31.86,1.04,1.39,1.91,1.39,1.1,0,2.03-.88,2.03-1.91,0-.59-.25-1.03-.78-1.36Z"/>
      <path class="cls-1" d="M10.95,23.01c.4,0,.87.21,1.2.54l.16.17.65-.65-.17-.18c-.49-.52-1.16-.82-1.83-.82-1.57,0-2.84,1.42-2.84,3.18s1.3,3.16,2.83,3.16c.66,0,1.29-.27,1.83-.78l.09-.09v-.21l-.55-.55-.16.16c-.33.32-.81.53-1.21.53-.45,0-.95-.25-1.33-.67-.37-.42-.57-.96-.57-1.52,0-1.23.87-2.26,1.9-2.26Z"/>
    </g>
  </g>
</svg>