<?xml version="1.0" encoding="UTF-8"?>
<svg id="_レイヤー_1" data-name="レイヤー_1" xmlns="http://www.w3.org/2000/svg" version="1.1" viewBox="0 0 22.1 22.1">
  <!-- Generator: Adobe Illustrator 29.1.0, SVG Export Plug-In . SVG Version: 2.1.0 Build 142)  -->
  <defs>
    <style>
      .st0 {
        fill: #555;
      }
    </style>
  </defs>
  <g id="Layer_2">
    <g id="Layer_1-2">
      <path id="responsive_design" class="st0" d="M17.3,20.3c.2,0,.3.1.3.3s-.1.3-.3.3-.3-.1-.3-.3.1-.3.3-.3ZM19.1,21c.2,0,.3-.1.3-.3s-.1-.3-.3-.3-.3.1-.3.3.1.3.3.3ZM18.2,12.7c-.2,0-.3.2-.3.4,0,.2.1.3.3.3.2,0,.3-.2.3-.4,0-.2-.1-.3-.3-.3ZM22.1,12.8v8c0,.7-.6,1.2-1.2,1.2h-5.4c-.7,0-1.2-.5-1.2-1.2v-8c0-.7.5-1.2,1.2-1.2h5.4c.7,0,1.2.6,1.2,1.2h0ZM21.4,19.9h-6.5c0,.5-.2,1.5.6,1.6h5.4c.3,0,.6-.2.6-.6v-1ZM21.4,12.8c0-.3-.3-.6-.6-.6h-5.4c-.3,0-.6.2-.6.6v6.4h6.5v-6.4ZM13.3,22.1h-4.9c-.7,0-1.2-.6-1.2-1.2V5.7c0-.7.6-1.2,1.2-1.2h12.5c.7,0,1.2.6,1.2,1.2v4.9c0,.2-.1.3-.3.3s-.3-.1-.3-.3v-3.2H7.8v11.8h5.5c.2,0,.3.1.4.3s-.1.3-.3.4c0,0,0,0,0,0h-5.5c0,.5-.2,1.5.6,1.6h4.9c.2,0,.3.2.3.4,0,.2-.1.3-.3.3ZM7.8,6.7h13.6c0-.5.2-1.5-.6-1.6h-12.5c-.3,0-.6.2-.6.6h0v1ZM14.6,5.6c-.2,0-.3.1-.3.3s.1.3.3.3.3-.2.3-.3-.2-.3-.3-.3h0ZM10.7,20.7c0,.2.2.3.4.3.2,0,.3-.1.3-.3,0-.2-.2-.3-.4-.3-.2,0-.3.1-.3.3ZM6.1,15.9c.2,0,.3-.1.3-.3s-.1-.3-.3-.3H.7V1.2c0-.3.2-.6.6-.6h19.6c.3,0,.6.2.6.6v2.2c0,.2.2.3.4.3.2,0,.3-.1.3-.3V1.2c0-.7-.6-1.2-1.2-1.2H1.2C.6,0,0,.6,0,1.2v16.5c0,.7.6,1.2,1.2,1.2h2.8v2.5H.3c-.2,0-.3.1-.4.3,0,.2.1.3.3.4,0,0,0,0,0,0h5.8c.2,0,.3-.1.4-.3s-.1-.3-.3-.4c0,0,0,0,0,0h-1.5v-2.5h1.5c.2,0,.3-.2.3-.4,0-.2-.1-.3-.3-.3H1.2c-.3,0-.6-.3-.6-.6v-1.9h5.5Z"/>
    </g>
  </g>
</svg>