<?xml version="1.0" encoding="UTF-8"?>
<svg id="_レイヤー_2" data-name="レイヤー_2" xmlns="http://www.w3.org/2000/svg" width="25.37" height="48" viewBox="0 0 25.37 48">
  <defs>
    <style>
      .cls-1 {
        font-family: ZenKakuGothicNew-Light, 'Zen Kaku Gothic New';
        font-size: 8.87px;
        font-weight: 300;
      }

      .cls-1, .cls-2 {
        fill: #555;
      }
    </style>
  </defs>
  <g id="img_x5F_about">
    <g>
      <text class="cls-1" transform="translate(1.85 7.8)"><tspan x="0" y="0">Figma</tspan></text>
      <path class="cls-2" d="M21.98,23.71c3.2-1.99,4.19-6.2,2.21-9.41-1.24-2.02-3.43-3.24-5.8-3.24H6.81C3.05,11.05,0,14.11,0,17.89c0,2.37,1.22,4.57,3.23,5.82C.03,25.69-.96,29.91,1.02,33.12c.56.9,1.31,1.66,2.21,2.22-3.2,1.99-4.19,6.2-2.21,9.42,1.98,3.21,6.18,4.21,9.38,2.22,2.01-1.25,3.23-3.45,3.23-5.82v-6.75c2.68,2.65,7,2.61,9.63-.09s2.6-7.02-.09-9.67c-.36-.36-.76-.67-1.19-.94h0ZM23.17,17.89c0,2.64-2.13,4.78-4.77,4.79h0s0,0,0,0h-4.76v-9.58h4.77c2.63,0,4.77,2.15,4.77,4.79ZM2.05,17.89c0-2.64,2.14-4.79,4.77-4.79h4.77v9.58h-4.77c-2.63,0-4.76-2.15-4.77-4.79ZM2.05,29.53c0-2.64,2.13-4.78,4.77-4.79h0s4.77,0,4.77,0v9.58h-4.77c-2.63,0-4.77-2.15-4.77-4.79ZM6.81,45.95c-2.63,0-4.77-2.14-4.77-4.78,0-2.65,2.13-4.79,4.76-4.79,0,0,0,0,0,0h4.77s0,4.79,0,4.79c0,2.64-2.14,4.79-4.77,4.79ZM18.4,34.31c-2.63,0-4.77-2.15-4.77-4.79,0-2.64,2.13-4.78,4.76-4.79h0c2.63,0,4.77,2.15,4.76,4.8,0,2.64-2.14,4.78-4.77,4.78Z"/>
    </g>
  </g>
</svg>