<?xml version="1.0" encoding="UTF-8"?>
<svg id="_レイヤー_2" data-name="レイヤー_2" xmlns="http://www.w3.org/2000/svg" viewBox="0 0 18.85 35.67">
  <defs>
    <style>
      .cls-1 {
        font-family: ZenKakuGothicNew-Light, 'Zen Kaku Gothic New';
        font-size: 6.59px;
        font-weight: 300;
      }

      .cls-1, .cls-2 {
        fill: #555;
      }
    </style>
  </defs>
  <g id="img">
    <g>
      <text class="cls-1" transform="translate(1.37 5.8)"><tspan x="0" y="0">Figma</tspan></text>
      <path class="cls-2" d="M16.33,17.62c2.38-1.48,3.11-4.61,1.64-7-.92-1.5-2.55-2.41-4.31-2.41H5.06C2.27,8.21,0,10.48,0,13.29c0,1.76.91,3.4,2.4,4.32C.02,19.09-.71,22.22.76,24.61c.41.67.98,1.24,1.65,1.65C.02,27.74-.71,30.87.76,33.26c1.47,2.39,4.59,3.12,6.97,1.65,1.49-.93,2.4-2.56,2.4-4.32v-5.02c1.99,1.97,5.2,1.94,7.16-.06,1.96-2,1.93-5.22-.06-7.19-.27-.26-.57-.5-.89-.7h0ZM17.21,13.3c0,1.96-1.59,3.56-3.54,3.56h0s0,0,0,0h-3.54v-7.12h3.54c1.96,0,3.54,1.59,3.54,3.56ZM1.52,13.3c0-1.96,1.59-3.56,3.54-3.56h3.54v7.12h-3.55c-1.96,0-3.54-1.6-3.54-3.56ZM1.52,21.94c0-1.96,1.59-3.56,3.54-3.56h0s3.54,0,3.54,0v7.12h-3.54c-1.96,0-3.54-1.59-3.54-3.56ZM5.06,34.14c-1.96,0-3.55-1.59-3.55-3.56,0-1.97,1.58-3.56,3.54-3.56,0,0,0,0,0,0h3.54s0,3.56,0,3.56c0,1.96-1.59,3.56-3.54,3.56ZM13.67,25.5c-1.96,0-3.54-1.59-3.54-3.56,0-1.96,1.58-3.55,3.54-3.56h0c1.96,0,3.54,1.6,3.54,3.56,0,1.96-1.59,3.55-3.54,3.55Z"/>
    </g>
  </g>
</svg>