<?xml version="1.0" encoding="UTF-8"?>
<svg id="_レイヤー_2" data-name="レイヤー_2" xmlns="http://www.w3.org/2000/svg" width="39.31" height="48.58" viewBox="0 0 39.31 48.58">
  <defs>
    <style>
      .cls-1 {
        fill: none;
        stroke: #555;
        stroke-linecap: round;
        stroke-linejoin: round;
        stroke-width: 1.27px;
      }

      .cls-2 {
        fill: #555;
        font-family: ZenKakuGothicNew-Light, 'Zen Kaku Gothic New';
        font-size: 7.61px;
        font-weight: 300;
      }
    </style>
  </defs>
  <g id="img_x5F_about">
    <g>
      <text class="cls-2" transform="translate(7.02 6.7)"><tspan x="0" y="0">Git Hub</tspan></text>
      <path class="cls-1" d="M19.66,9.9C9.15,9.9.63,18.42.63,28.92c-.02,9.01,6.13,16.87,14.89,19.02v-4.96h-1.65c-4.33,0-5.86-6.62-8.27-6.62,4.62,0,5.51,3.31,8.27,3.31.81.11,1.55-.46,1.65-1.26.02-.13.02-.26,0-.39v-.58c-4.81-1.36-8.27-4.96-8.27-9.35.04-2.28.97-4.45,2.6-6.05-.85-1.83-.57-3.97.71-5.52,1.51.45,2.87,1.31,3.94,2.48,3.33-1.21,6.99-1.21,10.32,0,1.06-1.17,2.42-2.03,3.94-2.48,1.28,1.55,1.56,3.7.71,5.52,1.63,1.6,2.56,3.77,2.6,6.05,0,4.53-3.79,8.27-8.97,9.53.53,1.16.77,2.43.69,3.71v6.62c8.75-2.15,14.9-10.01,14.89-19.02,0-10.51-8.52-19.02-19.02-19.02Z"/>
    </g>
  </g>
</svg>