<?xml version="1.0" encoding="UTF-8"?>
<svg id="_レイヤー_2" data-name="レイヤー_2" xmlns="http://www.w3.org/2000/svg" viewBox="0 0 30.21 36.97">
  <defs>
    <style>
      .cls-1 {
        fill: none;
        stroke: #555;
        stroke-linecap: round;
        stroke-linejoin: round;
        stroke-width: .97px;
      }

      .cls-2 {
        fill: #555;
        font-family: ZenKakuGothicNew-Light, 'Zen Kaku Gothic New';
        font-size: 5.56px;
        font-weight: 300;
      }
    </style>
  </defs>
  <g id="img">
    <text class="cls-2" transform="translate(5.87 4.89)"><tspan x="0" y="0">Git Hub</tspan></text>
    <path class="cls-1" d="M15.1,7.25C7.03,7.25.49,13.8.49,21.87c-.01,6.93,4.71,12.96,11.44,14.62v-3.81h-1.27c-3.33,0-4.5-5.08-6.35-5.08,3.55,0,4.23,2.54,6.35,2.54.62.08,1.19-.35,1.27-.97.01-.1.01-.2,0-.3v-.44c-3.7-1.04-6.35-3.81-6.35-7.18.03-1.75.75-3.42,2-4.65-.65-1.4-.44-3.05.55-4.25,1.16.35,2.21,1.01,3.02,1.91,2.56-.93,5.37-.93,7.93,0,.82-.9,1.86-1.56,3.02-1.91.98,1.19,1.2,2.84.55,4.25,1.25,1.23,1.97,2.9,2,4.65,0,3.48-2.91,6.35-6.89,7.32.41.89.59,1.87.53,2.85v5.08c6.73-1.65,11.45-7.69,11.44-14.62,0-8.07-6.54-14.62-14.62-14.62Z"/>
  </g>
</svg>