<?xml version="1.0" encoding="UTF-8"?>
<svg id="_レイヤー_1" data-name="レイヤー_1" xmlns="http://www.w3.org/2000/svg" viewBox="0 0 173.44 226.5">
  <defs>
    <style>
      .cls-1 {
        fill: #1f1f1f;
      }
    </style>
  </defs>
  <path class="cls-1" d="M172.49,51.82L121.62.95C120.99.32,120.16,0,119.33,0c0,0,0,0,0,0H15.88C7.12,0,0,7.12,0,15.88v194.73c0,8.76,7.12,15.88,15.88,15.88h141.68c8.76,0,15.88-7.12,15.88-15.88V54.12h0c0-.83-.32-1.66-.95-2.3ZM6.5,106.14h160.44v65.09H6.5v-65.09ZM122.57,11.1l39.77,39.77h-39.77V11.1ZM15.88,6.5h100.19v47.62c0,1.79,1.46,3.25,3.25,3.25h47.62v42.27H6.5V15.88c0-5.17,4.21-9.38,9.38-9.38ZM157.56,220H15.88c-5.17,0-9.38-4.21-9.38-9.38v-32.89h160.44v32.89c0,5.17-4.21,9.38-9.38,9.38Z"/>
  <polygon class="cls-1" points="44.5 134.53 31.26 134.53 31.26 121.27 25.69 121.27 25.69 156.1 31.26 156.1 31.26 139.97 44.5 139.97 44.5 156.1 50.07 156.1 50.07 121.27 44.5 121.27 44.5 134.53"/>
  <polygon class="cls-1" points="135.56 150.66 135.56 121.27 129.99 121.27 129.99 156.1 147.75 156.1 147.75 150.66 135.56 150.66"/>
  <polygon class="cls-1" points="79.97 121.46 54.92 121.46 54.92 127.01 64.61 127.01 64.61 155.91 70.29 155.91 70.29 127.01 79.97 127.01 79.97 121.46"/>
  <polygon class="cls-1" points="112.29 121.27 102.47 144.08 92.69 121.27 88.79 121.27 79.21 156.1 85.04 156.1 91.62 132.98 100.55 153.74 104.39 153.74 113.36 132.97 119.95 156.1 125.77 156.1 116.2 121.27 112.29 121.27"/>
</svg>