<?xml version="1.0" encoding="UTF-8"?>
<svg id="_レイヤー_2" data-name="レイヤー_2" xmlns="http://www.w3.org/2000/svg" width="31.56" height="41.22" viewBox="0 0 31.56 41.22">
  <defs>
    <style>
      .cls-1 {
        fill: #555;
      }
    </style>
  </defs>
  <g id="img_x5F_about">
    <g>
      <path class="cls-1" d="M31.39,9.43L22.13.17C22.02.06,21.86,0,21.71,0c0,0,0,0,0,0H2.89C1.3,0,0,1.3,0,2.89v35.44c0,1.59,1.3,2.89,2.89,2.89h25.78c1.59,0,2.89-1.3,2.89-2.89V9.85h0c0-.15-.06-.3-.17-.42ZM1.18,19.31h29.19v11.84H1.18v-11.84ZM22.3,2.02l7.24,7.24h-7.24V2.02ZM2.89,1.18h18.23v8.66c0,.33.26.59.59.59h8.66v7.69H1.18V2.89c0-.94.77-1.71,1.71-1.71ZM28.67,40.03H2.89c-.94,0-1.71-.77-1.71-1.71v-5.98h29.19v5.98c0,.94-.77,1.71-1.71,1.71Z"/>
      <polygon class="cls-1" points="8.1 24.48 5.69 24.48 5.69 22.07 4.68 22.07 4.68 28.4 5.69 28.4 5.69 25.47 8.1 25.47 8.1 28.4 9.11 28.4 9.11 22.07 8.1 22.07 8.1 24.48"/>
      <polygon class="cls-1" points="24.67 27.41 24.67 22.07 23.65 22.07 23.65 28.4 26.89 28.4 26.89 27.41 24.67 27.41"/>
      <polygon class="cls-1" points="14.55 22.1 9.99 22.1 9.99 23.11 11.76 23.11 11.76 28.37 12.79 28.37 12.79 23.11 14.55 23.11 14.55 22.1"/>
      <polygon class="cls-1" points="20.43 22.07 18.65 26.22 16.87 22.07 16.16 22.07 14.41 28.4 15.47 28.4 16.67 24.2 18.3 27.98 19 27.98 20.63 24.2 21.83 28.4 22.89 28.4 21.14 22.07 20.43 22.07"/>
    </g>
  </g>
</svg>