<?xml version="1.0" encoding="UTF-8"?>
<svg id="_レイヤー_2" data-name="レイヤー_2" xmlns="http://www.w3.org/2000/svg" width="44.15" height="43.23" viewBox="0 0 44.15 43.23">
  <defs>
    <style>
      .cls-1 {
        fill: #555;
      }
    </style>
  </defs>
  <g id="img_x5F_about">
    <path class="cls-1" d="M0,0v43.23h44.15V0H0ZM1.84,1.85h40.47v39.53H1.84V1.85ZM15.31,24.48l-1.46,5.54c-.03.16-.09.19-.27.19h-2.7c-.19,0-.22-.06-.19-.27l5.22-18.37c.09-.33.15-.63.18-1.54,0-.12.06-.18.16-.18h3.85c.12,0,.19.03.22.18l5.86,19.95c.04.15,0,.24-.15.24h-3.03c-.16,0-.24-.04-.27-.16l-1.52-5.56h-5.9,0ZM20.45,21.48c-.52-2.04-1.73-6.52-2.18-8.68h-.04c-.39,2.16-1.37,5.82-2.12,8.68h4.34ZM28.72,11.21c0-1.19.82-1.89,1.88-1.89,1.12,0,1.88.76,1.88,1.89,0,1.22-.79,1.89-1.92,1.89s-1.85-.67-1.85-1.89h0ZM28.93,15.41c0-.14.06-.2.21-.2h2.89c.17,0,.22.06.22.22v14.58c0,.15-.03.21-.22.21h-2.85c-.19,0-.24-.09-.24-.24v-14.57h-.01Z"/>
  </g>
</svg>