<?xml version="1.0" encoding="UTF-8"?>
<svg id="_レイヤー_2" data-name="レイヤー_2" xmlns="http://www.w3.org/2000/svg" viewBox="0 0 22.34 22.34">
  <defs>
    <style>
      .cls-1 {
        fill: #fff;
      }
    </style>
  </defs>
  <g id="img">
    <path class="cls-1" d="M6.55.08c-1.19.06-2,.25-2.71.52-.73.29-1.36.67-1.98,1.29-.62.62-1,1.24-1.29,1.98-.28.71-.46,1.52-.51,2.71C0,7.78,0,8.16,0,11.19c0,3.03.02,3.41.08,4.61.06,1.19.25,2,.52,2.71.29.73.67,1.36,1.29,1.98.62.62,1.24,1,1.98,1.28.71.27,1.52.46,2.71.51,1.19.05,1.57.06,4.6.06,3.03,0,3.41-.02,4.61-.08s2-.25,2.71-.52c.73-.29,1.36-.67,1.98-1.29.62-.62,1-1.25,1.28-1.98.28-.71.46-1.52.51-2.71.05-1.19.06-1.57.06-4.61s-.02-3.41-.08-4.61-.25-2-.52-2.71c-.29-.73-.67-1.36-1.29-1.98-.62-.62-1.25-1-1.98-1.28-.71-.28-1.52-.46-2.71-.51S14.18,0,11.15,0s-3.41.02-4.61.08M6.68,20.27c-1.09-.05-1.68-.23-2.07-.38-.52-.2-.89-.44-1.29-.83-.39-.39-.63-.76-.84-1.28-.15-.39-.34-.98-.39-2.07-.06-1.18-.07-1.53-.07-4.51,0-2.98,0-3.34.06-4.51.05-1.09.23-1.68.38-2.07.2-.52.44-.89.83-1.29.39-.39.76-.63,1.28-.84.39-.15.98-.34,2.07-.39,1.18-.06,1.53-.07,4.51-.07,2.98,0,3.34,0,4.51.06,1.09.05,1.68.23,2.07.38.52.2.89.44,1.29.83s.63.76.84,1.28c.15.39.34.98.39,2.07.06,1.18.07,1.53.07,4.51,0,2.98,0,3.34-.06,4.51-.05,1.09-.23,1.68-.38,2.08-.2.52-.44.89-.83,1.29-.39.39-.76.63-1.28.84-.39.15-.98.34-2.07.39-1.18.06-1.53.07-4.51.07s-3.34,0-4.51-.06M15.78,5.2c0,.74.6,1.34,1.34,1.34s1.34-.6,1.34-1.34c0-.74-.6-1.34-1.34-1.34,0,0,0,0,0,0-.74,0-1.34.6-1.34,1.34M5.44,11.18c0,3.17,2.58,5.73,5.75,5.73s5.73-2.58,5.73-5.75-2.58-5.73-5.75-5.73c-3.17,0-5.73,2.58-5.73,5.75M7.45,11.18c0-2.06,1.66-3.73,3.72-3.73,2.06,0,3.73,1.66,3.73,3.72,0,2.06-1.66,3.73-3.72,3.73-2.06,0-3.73-1.66-3.73-3.72h0"/>
  </g>
</svg>