<?xml version="1.0" encoding="UTF-8"?>
<svg id="_レイヤー_2" xmlns="http://www.w3.org/2000/svg" version="1.1" viewBox="0 0 22.3 22.3">
  <!-- Generator: Adobe Illustrator 29.1.0, SVG Export Plug-In . SVG Version: 2.1.0 Build 142)  -->
  <defs>
    <style>
      .st0 {
        fill: #555;
      }
    </style>
  </defs>
  <g id="img">
    <path class="st0" d="M6.6,0c-1.2,0-2,.2-2.7.5-.7.3-1.4.7-2,1.3-.6.6-1,1.2-1.3,2-.3.7-.5,1.5-.5,2.7,0,1.2,0,1.6,0,4.6s0,3.4,0,4.6c0,1.2.2,2,.5,2.7.3.7.7,1.4,1.3,2,.6.6,1.2,1,2,1.3.7.3,1.5.5,2.7.5,1.2,0,1.6,0,4.6,0s3.4,0,4.6,0,2-.2,2.7-.5c.7-.3,1.4-.7,2-1.3.6-.6,1-1.2,1.3-2,.3-.7.5-1.5.5-2.7,0-1.2,0-1.6,0-4.6s0-3.4,0-4.6-.2-2-.5-2.7c-.3-.7-.7-1.4-1.3-2-.6-.6-1.2-1-2-1.3-.7-.3-1.5-.5-2.7-.5s-1.6,0-4.6,0-3.4,0-4.6,0M6.7,20.3c-1.1,0-1.7-.2-2.1-.4-.5-.2-.9-.4-1.3-.8-.4-.4-.6-.8-.8-1.3-.2-.4-.3-1-.4-2.1,0-1.2,0-1.5,0-4.5s0-3.3,0-4.5c0-1.1.2-1.7.4-2.1.2-.5.4-.9.8-1.3.4-.4.8-.6,1.3-.8.4-.2,1-.3,2.1-.4,1.2,0,1.5,0,4.5,0s3.3,0,4.5,0c1.1,0,1.7.2,2.1.4.5.2.9.4,1.3.8s.6.8.8,1.3c.1.4.3,1,.4,2.1,0,1.2,0,1.5,0,4.5s0,3.3,0,4.5c0,1.1-.2,1.7-.4,2.1-.2.5-.4.9-.8,1.3-.4.4-.8.6-1.3.8-.4.1-1,.3-2.1.4-1.2,0-1.5,0-4.5,0s-3.3,0-4.5,0M15.8,5.2c0,.7.6,1.3,1.3,1.3s1.3-.6,1.3-1.3-.6-1.3-1.3-1.3h0c-.7,0-1.3.6-1.3,1.3M5.4,11.2c0,3.2,2.6,5.7,5.8,5.7s5.7-2.6,5.7-5.8-2.6-5.7-5.8-5.7-5.7,2.6-5.7,5.8M7.4,11.2c0-2.1,1.7-3.7,3.7-3.7s3.7,1.7,3.7,3.7-1.7,3.7-3.7,3.7-3.7-1.7-3.7-3.7h0"/>
  </g>
</svg>