<?xml version="1.0" encoding="UTF-8"?>
<svg id="_レイヤー_2" data-name="レイヤー_2" xmlns="http://www.w3.org/2000/svg" width="38.04" height="40.3" viewBox="0 0 38.04 40.3">
  <defs>
    <style>
      .cls-1 {
        fill: #555;
      }
    </style>
  </defs>
  <g id="img_x5F_about">
    <path class="cls-1" d="M13.74,25.61l.06.03.11.05c.14.07.29.14.44.2l.09.04c.17.07.34.14.51.21l.12.05c.16.06.32.12.48.18l.06.02c.18.06.36.12.54.18l.13.04c.18.06.37.12.56.16,12.05,2.2,15.54-7.24,15.54-7.24-2.94,3.83-8.15,4.84-13.1,3.71-.19-.04-.37-.1-.55-.15l-.14-.04c-.18-.05-.36-.11-.53-.17l-.07-.03c-.16-.06-.31-.11-.47-.17l-.13-.05c-.17-.07-.34-.14-.51-.21l-.1-.04c-.14-.06-.29-.13-.43-.2l-.12-.06c-.11-.05-.22-.11-.33-.17l-.22-.12c-.13-.07-.26-.15-.4-.22l-.13-.07c-.17-.1-.35-.21-.52-.32l-.14-.09c-.12-.08-.25-.16-.37-.24l-.12-.08c-.12-.08-.23-.17-.35-.25l-.15-.12c-.1-.08-.21-.16-.31-.24l-.14-.11c-.13-.11-.26-.22-.39-.33l-.04-.04c-.14-.12-.28-.25-.41-.37l-.12-.11c-.1-.09-.2-.19-.29-.29l-.12-.12c-.12-.13-.24-.25-.36-.38l-.02-.02c-.12-.14-.25-.28-.37-.42l-.1-.11c-.09-.11-.18-.22-.26-.33l-.1-.12c-.1-.13-.2-.27-.3-.4-2.74-3.74-3.73-8.9-1.54-13.14l-1.94,2.47c-2.49,3.58-2.18,8.24-.28,12.04l.14.27.09.17.06.1.1.18c.06.1.12.21.18.31l.1.17c.07.11.14.22.21.33l.09.14c.1.15.2.3.31.44h0s.05.08.05.08c.09.12.18.25.28.37l.1.13c.08.11.17.21.26.32l.1.12c.12.14.24.28.36.41h0s.01.02.01.02c.12.13.24.26.36.38l.12.12c.1.1.19.19.29.29l.12.11c.13.12.26.24.4.36h0s.07.06.07.06c.12.1.24.21.36.31l.15.12c.1.08.2.16.3.24l.16.12c.11.08.22.16.34.24l.12.09.03.02c.11.07.22.15.33.22l.14.09c.17.11.34.21.51.32l.14.08c.13.07.26.15.39.22l.21.11.28.14ZM14.95,13.48c.27.39.57.85.93,1.16.13.14.27.28.4.42l.11.1c.13.13.27.26.41.38h.02s0,.02,0,.02c.16.14.32.27.48.4l.11.09c.16.13.33.25.5.37h.01s.23.16.23.16l.11.07c.12.08.25.16.37.23l.05.03c.11.06.22.12.33.18l.12.06.23.12.03.02c.16.08.32.15.48.22l.11.04c.13.06.26.11.4.16l.17.06c.12.04.24.09.36.13l.16.05c.17.05.34.12.52.15,9.3,1.54,11.45-5.62,11.45-5.62-1.94,2.79-5.68,4.12-9.68,3.08-.18-.05-.35-.1-.53-.15l-.16-.05c-.12-.04-.25-.08-.37-.13l-.17-.06c-.13-.05-.27-.1-.4-.16l-.11-.05c-.16-.07-.33-.15-.49-.23l-.24-.12-.14-.07c-.1-.06-.21-.11-.31-.17l-.07-.04c-.13-.07-.25-.15-.37-.23l-.11-.08-.24-.16c-.17-.12-.34-.24-.5-.37l-.11-.09c-1.75-1.38-3.14-3.27-3.8-5.41-.69-2.22-.54-4.71.66-6.74l-1.47,2.08c-1.8,2.59-1.7,6.06-.3,8.8.24.46.5.91.8,1.33h0ZM24.76,10.28l.23.08.1.03c.11.03.22.07.33.1,5.13.99,6.53-2.64,6.9-3.17-1.22,1.76-3.27,2.18-5.79,1.57-.2-.05-.42-.12-.61-.19-.25-.09-.49-.19-.72-.3-.45-.21-.87-.47-1.27-.77-2.25-1.71-3.65-4.97-2.18-7.62l-.79,1.1c-1.06,1.56-1.17,3.5-.43,5.23.78,1.83,2.37,3.27,4.23,3.95h0ZM19.8,31.3h-1.39c-.08,0-.15.06-.17.14l-.49,2.29-.49,2.29c-.02.08-.09.14-.17.14h-.99c-.98,0-.86-.67-.66-1.6v-.03s.03-.12.03-.12v-.02s.05-.24.05-.24l.05-.25.05-.26.22-1.1.23-1.1c.02-.08-.04-.14-.11-.14h-1.43c-.08,0-.15.06-.17.14l-.31,1.46-.31,1.46h0s-.03.14-.03.14c-.35,1.62-.26,3.16,1.66,3.21h.06s3.02,0,3.02,0c.08,0,.15-.06.17-.14l.65-3.06.65-3.06c.02-.08-.03-.14-.11-.14ZM4.89,31.28h-1.53c-.08,0-.15.06-.17.14l-.14.64-.14.64c-.02.08.03.14.11.14h1.54c.08,0,.15-.06.17-.14l.14-.64.14-.64c.02-.08-.03-.14-.11-.14ZM4.44,33.27h-1.54c-.08,0-.15.06-.17.14l-.22.96-.22.96-.06.27-.21.98-.21.98c-.02.08-.05.2-.07.27,0,0-.29.86-.77.85h-.06s-.42,0-.42,0h0c-.08,0-.15.06-.17.13l-.16.67-.16.67c-.02.08.03.14.11.14.27,0,.89.01,1.26.01,1.21,0,1.85-.67,2.25-2.6l.48-2.21.45-2.08c.02-.07-.03-.14-.11-.14ZM32.82,32.76l-.06-.26-.06-.27-.03-.14c-.13-.49-.49-.77-1.29-.77h-1.24s-1.14,0-1.14,0h-1.29c-.08,0-.15.06-.17.14l-.06.27-.07.32-.02.09-.58,2.72-.55,2.58c-.02.08-.02.17-.01.21,0,.04.16.07.23.07h1.16c.08,0,.18-.01.22-.03s.1-.17.12-.24l.21-1.02.21-1.02h0s.03-.14.03-.14l.25-1.17.22-1.04c.02-.08.09-.14.17-.14h3.65c.08,0,.13-.06.11-.14ZM37.52,30.37h-.28s-1.17,0-1.17,0c-.08,0-.18.05-.22.12l-2.59,3.79c-.04.06-.09.05-.11-.02l-.19-.83c-.02-.08-.09-.14-.17-.14h-1.66c-.08,0-.12.06-.1.13l.75,2.61c.02.07.02.2,0,.27l-.32,1.26c-.02.08.03.14.11.14h1.64c.08,0,.16-.06.18-.14l.32-1.26c.02-.08.07-.19.12-.25l4.2-5.57c.05-.06.02-.11-.06-.11h-.44ZM24.32,33.64h0c0,.08-.09.14-.16.14h-2.11c-.07,0-.11-.05-.1-.11h0s0,0,0,0h0s0-.04,0-.04c.2-.54.61-.89,1.38-.89.87,0,1.04.42.98.9ZM23.7,31.21c-2.71,0-3.35,1.64-3.71,3.3-.36,1.69-.33,3.27,2.47,3.27h.42s.02,0,.02,0h.34s0,0,0,0c.74,0,1.48,0,1.78-.01.08,0,.15-.06.17-.14l.11-.55.02-.11.14-.66c.02-.08-.03-.14-.11-.14h-2.52c-1,0-1.3-.27-1.19-1.05h4.02,0s0,0,0,0c.06,0,.12-.05.15-.1v-.03s0,0,0,0c.6-2.25.43-3.77-2.13-3.77ZM10.91,33.63l-.04.13h0s-.3,1.08-.3,1.08l-.3,1.08c-.02.07-.1.14-.18.14h-1.61c-1.22,0-1.52-.95-1.22-2.36.3-1.44.88-2.33,2.08-2.42,1.64-.12,1.97,1.03,1.57,2.36ZM12.01,35.97s.76-1.84.93-2.9c.23-1.42-.48-3.49-3.23-3.49s-3.93,1.97-4.38,4.11c-.45,2.16.14,4.05,2.86,4.04h2.15s2.01-.02,2.01-.02c.08,0,.16-.06.18-.14l.35-1.33c.02-.08-.03-.14-.11-.14h-.34s-.34,0-.34,0c-.07,0-.1-.04-.1-.1v-.03ZM25.56,34.74c0,.05-.04.09-.09.09s-.09-.04-.09-.09.04-.09.09-.09.09.04.09.09Z"/>
  </g>
</svg>