<?xml version="1.0" encoding="UTF-8"?>
<svg id="_レイヤー_2" data-name="レイヤー_2" xmlns="http://www.w3.org/2000/svg" width="31.56" height="41.22" viewBox="0 0 31.56 41.22">
  <defs>
    <style>
      .cls-1 {
        fill: #555;
      }
    </style>
  </defs>
  <g id="img_x5F_about">
    <g>
      <path class="cls-1" d="M31.39,9.43L22.13.17c-.12-.12-.27-.17-.42-.17,0,0,0,0,0,0H2.89C1.3,0,0,1.3,0,2.89v35.44c0,1.59,1.3,2.89,2.89,2.89h25.78c1.59,0,2.89-1.3,2.89-2.89V9.85h0c0-.15-.06-.3-.17-.42ZM1.18,19.31h29.19v11.84H1.18v-11.84ZM22.3,2.02l7.24,7.24h-7.24V2.02ZM2.89,1.18h18.23v8.66c0,.33.26.59.59.59h8.66v7.69H1.18V2.89c0-.94.77-1.71,1.71-1.71ZM28.67,40.03H2.89c-.94,0-1.71-.77-1.71-1.71v-5.98h29.19v5.98c0,.94-.77,1.71-1.71,1.71Z"/>
      <path class="cls-1" d="M13.37,26.82c0,.57-.13.57-.25.57-.14,0-.29-.11-.37-.27l-.17-.36-.78.59.11.24c.22.47.67.77,1.18.77.84,0,1.27-.52,1.27-1.54v-4.72h-.99v4.72Z"/>
      <path class="cls-1" d="M18.97,25.08h0s-1.07-.56-1.07-.56l-.04-.02c-.46-.22-.76-.39-.76-.71,0-.4.31-.72.7-.72.35,0,.62.15.83.48l.13.28.85-.53-.15-.28c-.32-.58-.96-.95-1.64-.95-1.01,0-1.75.73-1.75,1.73,0,.54.25.98.73,1.28h0s1.01.54,1.01.54l.1.05c.5.24.82.43.82.77,0,.53-.46.97-1.03.97-.47,0-.81-.26-1.02-.77l-.08-.28-.98.31.12.33c.31.87,1.06,1.41,1.94,1.41,1.12,0,2.06-.89,2.06-1.94,0-.6-.26-1.05-.79-1.39Z"/>
    </g>
  </g>
</svg>