<?xml version="1.0" encoding="UTF-8"?>
<svg id="_レイヤー_1" data-name="レイヤー_1" xmlns="http://www.w3.org/2000/svg" viewBox="0 0 173.44 226.5">
  <defs>
    <style>
      .cls-1 {
        fill: #1f1f1f;
      }
    </style>
  </defs>
  <path class="cls-1" d="M172.49,51.82L121.62.95C120.99.32,120.16,0,119.33,0c0,0,0,0,0,0H15.88C7.12,0,0,7.12,0,15.88v194.73c0,8.76,7.12,15.88,15.88,15.88h141.68c8.76,0,15.88-7.12,15.88-15.88V54.12h0c0-.83-.32-1.66-.95-2.3ZM6.5,106.14h160.44v65.09H6.5v-65.09ZM122.57,11.1l39.77,39.77h-39.77V11.1ZM15.88,6.5h100.19v47.62c0,1.79,1.46,3.25,3.25,3.25h47.62v42.27H6.5V15.88c0-5.17,4.21-9.38,9.38-9.38ZM157.56,220H15.88c-5.17,0-9.38-4.21-9.38-9.38v-32.89h160.44v32.89c0,5.17-4.21,9.38-9.38,9.38Z"/>
  <path class="cls-1" d="M73.46,147.41c0,3.16-.69,3.16-1.37,3.16-.77,0-1.6-.6-2.01-1.47l-.93-1.98-4.31,3.23.62,1.31c1.22,2.6,3.7,4.21,6.48,4.21,4.62,0,6.96-2.85,6.96-8.47v-25.92h-5.43v25.92Z"/>
  <path class="cls-1" d="M104.24,137.83l-.05-.03-5.9-3.07-.24-.11c-2.53-1.2-4.19-2.12-4.19-3.9,0-2.22,1.7-3.95,3.87-3.95,1.95,0,3.4.85,4.56,2.66l.74,1.52,4.68-2.94-.84-1.52c-1.75-3.17-5.29-5.21-9.02-5.21-5.57,0-9.61,4.01-9.61,9.53,0,2.95,1.4,5.38,4.04,7.01l.04.02,5.57,2.95.55.27c2.74,1.33,4.53,2.34,4.53,4.23,0,2.93-2.53,5.32-5.64,5.32-2.56,0-4.44-1.43-5.59-4.25l-.42-1.51-5.39,1.72.65,1.79c1.72,4.77,5.81,7.74,10.67,7.74,6.15,0,11.34-4.88,11.34-10.65,0-3.27-1.42-5.77-4.35-7.61Z"/>
</svg>