<?xml version="1.0" encoding="UTF-8"?>
<svg id="_レイヤー_2" data-name="レイヤー_2" xmlns="http://www.w3.org/2000/svg" viewBox="0 0 2150.54 855.15">
  <defs>
    <style>
      .cls-1 {
        fill: none;
        stroke: #fff;
        stroke-miterlimit: 10;
        stroke-width: 8px;
      }
    </style>
  </defs>
  <path class="cls-1" d="M2147.58,2.68s-176.84,195.59-356.03,275.68c-180.56,80.7-208.89,90.87-331.73,114.24s-149.55,14.13-165.25,10.58-124.21-25.48-90.86-128.68c22.35-69.17,88.12-41.95,99.27-22.4s41.95,73.76-13.52,160.9-61.77,173.17,30.01,199.48,149.44-91.91,151.39-150.01c1.76-52.45-22.2-158.55-141.92-148.58s-165.14,119.56-247.94,226.37c-94.8,122.29-253.01,230.39-517.13,262.96-121.81,15.02-226.57,56.8-563.73,46.24"/>
</svg>