<?xml version="1.0" encoding="UTF-8"?>
<svg id="_レイヤー_2" data-name="レイヤー_2" xmlns="http://www.w3.org/2000/svg" viewBox="0 0 1920.75 749.82">
  <defs>
    <style>
      .cls-1 {
        fill: #d48d95;
      }
    </style>
  </defs>
  <g id="img">
    <path class="cls-1" d="M1920.1.1c-98.2,88.12-210.37,160.31-331.27,213.15-60.63,26.5-123.4,48.12-187.53,64.43-61.56,15.66-126.53,29.75-190.28,30.54-52.64.65-125.11-13.86-141.22-72.87-10.49-38.4,5.66-101.09,53.76-103.09,54.33-2.26,67.52,60.15,62.62,102.32-6.9,59.45-50.3,105.09-65,162.2-6.75,26.2-6.25,54.52,8.44,78.05,11.62,18.61,30.96,30.98,51.91,36.61,49.22,13.23,97.33-9.74,125.2-50.89,31.04-45.81,39.93-109.55,23.31-162.26s-60.32-83.88-114.21-84.89c-128.71-2.4-191.73,123.08-257.05,212.64-81.4,111.61-196.56,190.85-327.4,233.52-69.03,22.51-140.32,35.46-211.85,47.02-58.8,9.5-117.68,18.65-176.75,26.33-66.3,8.62-132.68,14.42-199.54,15.61-14.28.25-28.57.4-42.85.54-.48,0-.48.75,0,.75,61.26-.63,122.19-2.66,183.15-9.11,46.08-4.88,91.99-11.25,137.81-18.06,69.41-10.33,139.19-20.29,207.81-35.09,68.98-14.87,137.14-35.48,200.49-66.94,57.51-28.57,110.55-66.02,156.84-110.51,46.66-44.85,82.31-96.98,118.66-150.1,35.16-51.38,74.97-104.12,133.68-129.69,52.45-22.84,120.81-25.21,162.77,19.44,43.8,46.62,43.78,124.13,20.57,180.34s-77.18,96.84-139.25,80.92c-27.64-7.09-50.8-25.61-60.42-52.91-11.75-33.32-.33-69.05,13.58-99.79,12.28-27.12,29.22-52.31,40.08-80.02,8.25-21.05,12.44-44.02,11.89-66.64-.9-37.11-18.7-79.51-61.58-80.16-38.73-.59-59.11,40.79-60.56,74.48-.84,19.64,3.91,40.09,15.93,55.93,14.74,19.42,38.06,32,61.04,38.85,56.53,16.85,118.99,5.83,175.73-4.36,64.1-11.51,127.24-28.35,188.63-50.09,122.86-43.51,238.76-106.62,342-186.17,24.56-18.92,48.36-38.79,71.44-59.5.36-.32-.17-.85-.53-.53h0Z"/>
  </g>
</svg>