<?xml version="1.0" encoding="UTF-8"?>
<svg id="_レイヤー_2" data-name="レイヤー_2" xmlns="http://www.w3.org/2000/svg" viewBox="0 0 2891.04 1887.05">
  <defs>
    <style>
      .cls-1 {
        fill: #d48d95;
      }
    </style>
  </defs>
  <g id="img">
    <path class="cls-1" d="M2890.95,79.9c-73.54-101.42-227.33-98.41-324.61-34.99-130.8,85.28-187.08,246.94-236.29,387.23-59.49,169.6-108.61,344.6-195.21,503.12-75.37,137.96-180.19,264.78-322.61,336.65-78.95,39.84-165.65,62.24-252.91,74.45-43.36,6.07-87.14,10.12-130.9,11.72-42.51,1.56-85.93.08-127.03-11.84-83.54-24.22-132.76-94.09-166.24-170.15-34.22-77.73-70.28-179.32-18.79-257.67,21.63-32.91,57.71-59.72,98.42-59.84,33.58-.1,63.38,18,81.99,45.31,36.12,52.98,35.43,126.35,19.81,186.08-38.52,147.31-138.24,268.56-254.32,363.25-126.25,102.99-273.26,180.06-421.86,245.35-164.06,72.08-335.62,127.1-511.01,163.85-42.79,8.96-85.81,16.79-129,23.61-.66.1-.38,1.11.28,1.01,182.29-28.76,361.37-76.81,533.47-143.45,158.68-61.44,315.66-136.53,455.43-234.26,123.21-86.15,237.02-195.57,298.6-335.05,26.51-60.04,45.81-125.63,37.18-191.77-6.83-52.37-32.9-109.82-89.2-122.56-65.47-14.81-124.81,42.13-140.44,101.87-21.11,80.72,15.48,170.36,51.15,241.75s87.05,127.72,165.77,146.71c39.39,9.5,80.36,10.35,120.66,8.64,43.08-1.82,86.17-5.82,128.85-11.92,86.5-12.36,172.34-34.7,250.63-74.2,71.17-35.91,134.1-86.15,187.89-144.76,112.74-122.86,183.38-276.34,239.81-431.49,32.44-89.19,60.88-179.75,92.4-269.26,28.8-81.77,58.93-164.43,103.68-239.07,40.02-66.73,94.67-130.01,166.99-162.39,63.01-28.21,139.15-34.4,204.06-8.81,33.03,13.02,61.59,34.62,82.45,63.39.39.54,1.3.02.9-.53h0Z"/>
  </g>
</svg>