<?xml version="1.0" encoding="UTF-8"?>
<svg id="_レイヤー_2" data-name="レイヤー_2" xmlns="http://www.w3.org/2000/svg" viewBox="0 0 2149.47 848.5">
  <defs>
    <style>
      .cls-1 {
        fill: #d48d95;
      }
    </style>
  </defs>
  <g id="img">
    <path class="cls-1" d="M2148.19.22c-23.88,24.03-47.75,48.06-71.63,72.09-36.59,36.83-76.18,69.89-118.07,100.64-123.05,90.3-262.9,157.78-410.38,197.21-36.87,9.86-74.21,17.97-111.86,24.22s-73.29,11.41-110.21,9.69-73.46-10.69-100.7-35.81c-21.08-19.44-28.58-48.18-24.52-76.12,3.53-24.22,16.47-50.81,40.69-59.99s53.23,3.65,66.09,26.24c13.91,24.41,14.3,55.34,9.64,82.34-5.67,32.88-22.69,60.51-37.74,89.76-15.61,30.34-31.72,64.03-30.1,99.02,1.28,27.53,15.01,52.78,38.5,67.46,49.79,31.11,112.93,11.72,146.96-32.76,38.75-50.63,48.54-129.02,21.57-187.06s-89.64-76.47-148.67-63.33c-67.95,15.13-115.78,65.08-155.06,119.64-21.81,30.3-41.59,62.02-63.75,92.06-23.25,31.52-49.44,60.87-78.13,87.53-58.91,54.74-127.82,97.42-202.61,126.83-78.37,30.82-160.94,47.38-243.78,60.85-108.41,17.64-217.56,35.84-327.38,41.81-67.19,3.66-134.73,3.05-202,3.96-11.45.16-22.9.31-34.35.47-.96.01-.97,1.51,0,1.5,62.66-.85,125.36-1.14,188.01-2.6,88.26-2.06,175.75-13.07,263-26.01,158.53-23.51,323.44-44.97,462.31-131.05,64.26-39.83,121.31-91.21,167.54-151.04,45.96-59.49,80.65-128.98,138.64-178.35,49.74-42.35,130.15-67.52,190.32-31.87,67.43,39.95,71.05,138.02,42.38,202.9-14.3,32.37-39.47,62.14-73.67,74.08-29.3,10.23-64.05,7.71-90.59-8.87-77.7-48.55-16.48-146.52,13.13-204.36,20.66-40.35,31.98-102.8,1.77-141.69-12.24-15.75-32.78-24.5-52.67-21.48s-35.74,19.19-43.99,37.47c-9.1,20.18-11.22,43.96-5.66,65.4,6.76,26.07,26.25,44.81,49.76,56.83,59.9,30.64,134.82,17.04,197.96,5.84,149.27-26.47,293.2-81.78,422.57-160.7,63.8-38.92,126.1-83.38,180.87-134.41,25.17-23.45,48.72-48.89,72.96-73.29,7.96-8.01,15.91-16.02,23.87-24.02.68-.69-.38-1.75-1.06-1.06h0Z"/>
  </g>
</svg>