<?xml version="1.0" encoding="UTF-8"?>
<svg id="_レイヤー_2" data-name="レイヤー_2" xmlns="http://www.w3.org/2000/svg" viewBox="0 0 1981.75 1561.04">
  <defs>
    <style>
      .cls-1 {
        fill: #d48d95;
      }
    </style>
  </defs>
  <g id="img">
    <path class="cls-1" d="M1981.66,79.72c-61.09-84.85-180.75-96.08-272.71-61.24-114.33,43.3-183.89,156.82-230.66,263.57-58.95,134.55-98.23,276.98-148.4,414.85-47.05,129.25-103.47,256.32-186.6,366.79s-185.03,192.68-311.85,238.87c-67.84,24.71-139.09,39.09-210.69,47.38-68.46,7.93-141.35,15.31-209.41.92-34.21-7.23-66.7-21.13-94.01-43.19-25.17-20.33-45.32-46.18-61.91-73.8s-30.66-58.95-42.77-89.82c-14.06-35.84-26.17-73.07-29.86-111.59-3.4-35.48.63-72.19,17.99-103.79,14.89-27.11,38.32-50.61,67.16-62.49,26.93-11.1,57.59-10.15,83.3,3.84,21.11,11.49,36.53,30.74,46.78,52.17,22.31,46.64,23.89,103.66,12.75,153.46-13.38,59.81-38.37,117.13-70.26,169.31-65.39,106.99-160.29,193.28-262.45,264.48-25.39,17.7-51.38,34.5-77.8,50.62-.57.35-.05,1.25.53.9,108.29-66.06,211.32-144.92,290.83-244.62,37.48-47,69.35-98.62,92.4-154.21,21.53-51.92,37.49-107.42,33.61-164.11-3.05-44.45-17.36-94.31-54.9-121.93-43.14-31.75-99.37-19.27-135.86,16.42-48.03,46.98-53.14,115.38-38.88,177.93,8.03,35.23,21.06,69.31,35.41,102.41,13.05,30.1,28.1,59.54,47.32,86.21,17.37,24.1,38.34,45.85,63.36,62.05,28.08,18.19,60.3,28.59,93.2,33.71,68.51,10.67,140.8,3.03,209.13-5.76,138.49-17.83,272.53-61.76,381.54-151.39,100.42-82.57,175.34-192.53,232.54-308.31,67.6-136.81,111.53-283.55,160.99-427.45,23.82-69.3,48.22-138.88,79.47-205.25,28.25-59.98,63-118.05,110.28-165.06,42.97-42.72,94.98-73.77,154.8-85.43,54.84-10.69,114.57-6.01,164.25,20.91,23.96,12.98,44.56,31.06,60.48,53.17.39.54,1.3.02.9-.53h0Z"/>
  </g>
</svg>