<?xml version="1.0" encoding="UTF-8"?>
<svg id="_レイヤー_2" data-name="レイヤー_2" xmlns="http://www.w3.org/2000/svg" viewBox="0 0 1921.5 750.56">
  <defs>
    <style>
      .cls-1 {
        fill: #d48d95;
      }
    </style>
  </defs>
  <g id="img">
    <path class="cls-1" d="M1920.2.2c-98.17,88.1-210.32,160.27-331.19,213.09-60.6,26.48-123.35,48.09-187.44,64.4s-126.46,29.74-190.18,30.53c-52.46.65-124.8-13.76-140.86-72.59-10.42-38.15,5.56-100.63,53.4-102.62,54.11-2.25,67.12,59.99,62.25,101.95-6.9,59.4-50.29,105.03-64.99,162.1-6.77,26.29-6.27,54.73,8.48,78.34,11.67,18.7,31.09,31.13,52.14,36.78,49.39,13.27,97.65-9.78,125.62-51.06,31.09-45.89,40-109.75,23.34-162.55-16.33-51.79-60.51-84.16-114.57-85.17-54.54-1.02-105.51,24.68-143.95,62.01-45.41,44.1-76.41,100.06-113.43,150.82-81.34,111.52-196.44,190.72-327.18,233.35-69.03,22.51-140.32,35.46-211.85,47.02-58.77,9.5-117.62,18.64-176.65,26.32-66.3,8.62-132.68,14.42-199.54,15.61-14.28.25-28.57.4-42.85.54-.96,0-.97,1.51,0,1.5,61.26-.63,122.19-2.66,183.15-9.11,46.11-4.88,92.05-11.26,137.91-18.08,69.41-10.33,139.19-20.29,207.81-35.09s137.2-35.5,200.58-66.98c57.54-28.58,110.6-66.06,156.92-110.57s82.35-97.03,118.72-150.18,74.89-104.02,133.54-129.55c52.3-22.77,120.48-25.14,162.32,19.38,43.71,46.52,43.64,123.9,20.47,179.98s-76.93,96.53-138.79,80.66c-27.51-7.06-50.58-25.47-60.16-52.65-11.71-33.22-.33-68.86,13.54-99.51,12.29-27.15,29.25-52.36,40.12-80.11,8.26-21.08,12.45-44.09,11.9-66.74-.9-37.33-18.86-79.88-61.96-80.54-38.94-.6-59.48,40.95-60.94,74.85-.85,19.7,3.93,40.23,15.98,56.12,14.79,19.51,38.19,32.15,61.26,39.02,56.59,16.87,119.13,5.84,175.93-4.36,64.1-11.51,127.24-28.35,188.63-50.09,122.89-43.52,238.82-106.64,342.09-186.21,24.58-18.94,48.41-38.83,71.51-59.56.72-.65-.34-1.7-1.06-1.06h0Z"/>
  </g>
</svg>