<?xml version="1.0" encoding="UTF-8"?>
<svg id="_レイヤー_2" data-name="レイヤー_2" xmlns="http://www.w3.org/2000/svg" viewBox="0 0 3066.81 462.58">
  <defs>
    <style>
      .cls-1 {
        fill: #d48d95;
      }
    </style>
  </defs>
  <g id="img">
    <path class="cls-1" d="M.82,327.14C129.22,179.16,309.46,89.25,497.48,42.76,597.78,17.96,703.37,1.54,806.87,3c55.5.78,111.08,8.28,163.56,26.87,42.6,15.09,82.56,36.74,120.27,61.5,77.84,51.12,146.31,114.76,220.81,170.36,80.1,59.79,166.41,104.97,265.88,121.63,109.18,18.29,220.76,7.33,329.94-5.1,116.81-13.3,232.79-24.94,350.54-23.51,242.57,2.95,482.51,44.8,720.07,90.55,29.63,5.71,59.25,11.48,88.87,17.26-.38-.07-.36-2.29-.78-2.38-237.66-46.38-476.54-92.87-718.9-104.99-119.4-5.97-238.34-2.05-357.13,11.11-110.32,12.22-221.19,28.73-332.49,23.2-104.53-5.2-202.17-34.2-290.36-90.81-78.46-50.37-147.17-113.93-221.37-170.05-76.21-57.64-158.86-105.57-254.45-120.98-106.46-17.17-218.35-2.97-323.49,17.14C378.37,61.05,191.15,137.24,50.13,272.06,32.59,288.82,15.94,306.44.04,324.76c-.29.33,1.05,2.06.78,2.38h0Z"/>
  </g>
</svg>