<?xml version="1.0" encoding="UTF-8"?>
<svg id="_レイヤー_2" data-name="レイヤー_2" xmlns="http://www.w3.org/2000/svg" width="44.15" height="43.23" viewBox="0 0 44.15 43.23">
  <defs>
    <style>
      .cls-1 {
        fill: #555;
      }
    </style>
  </defs>
  <g id="img_x5F_about">
    <path class="cls-1" d="M0,0v43.23h44.15V0H0ZM1.84,1.85h40.47v39.53H1.84V1.85ZM10.67,10.12c0-.12.26-.22.41-.22,1.19-.06,2.93-.09,4.74-.09,5.1,0,7.09,2.81,7.09,6.4,0,4.7-3.39,6.71-7.55,6.71-.7,0-.94-.04-1.43-.04v7.1c0,.15-.06.22-.21.22h-2.85c-.15,0-.21-.06-.21-.21V10.12ZM13.93,19.94c.42.03.76.03,1.49.03,2.15,0,4.18-.76,4.18-3.69,0-2.35-1.45-3.54-3.91-3.54-.73,0-1.42.03-1.76.06v7.14ZM29.77,17.74c-1.46,0-1.95.74-1.95,1.34,0,.67.33,1.13,2.28,2.14,2.88,1.41,3.79,2.74,3.79,4.73,0,2.95-2.25,4.54-5.28,4.54-1.61,0-2.98-.34-3.77-.79-.11-.06-.14-.15-.14-.3v-2.71c0-.18.09-.25.21-.15,1.15.76,2.49,1.1,3.7,1.1,1.46,0,2.06-.61,2.06-1.44,0-.67-.42-1.25-2.27-2.22-2.62-1.26-3.71-2.53-3.71-4.67,0-2.38,1.85-4.36,5.07-4.36,1.58,0,2.69.25,3.31.51.15.09.18.25.18.37v2.53c0,.15-.09.25-.27.18-.82-.48-2.03-.79-3.21-.79h0Z"/>
  </g>
</svg>