<?xml version="1.0" encoding="UTF-8"?>
<svg id="_レイヤー_1" data-name="レイヤー_1" xmlns="http://www.w3.org/2000/svg" viewBox="0 0 223.64 202.31">
  <defs>
    <style>
      .cls-1 {
        fill: #1f1f1f;
      }
    </style>
  </defs>
  <path class="cls-1" d="M90.57,20.74c1.68-1.74,3.98-4.13,3.98-8.66,0-.02,0-.03,0-.05l129.09-5.04-.27-7L3.36,8.59l.27,7,27.55-1.08c-.31.41-.71.84-1.24,1.38-1.21,1.26-2.73,2.87-3.49,5.35H3.5v7h23.09c.8,2.27,2.21,3.78,3.36,4.97,1.44,1.5,2.02,2.17,2.02,3.81s-.58,2.31-2.02,3.81c-1.68,1.74-3.98,4.13-3.98,8.66s2.3,6.92,3.98,8.66c1.44,1.5,2.02,2.17,2.02,3.81s-.58,2.32-2.02,3.81c-1.18,1.23-2.65,2.79-3.43,5.16H3.5c-1.93,0-3.5,1.57-3.5,3.5,0,44.51,18.44,71.74,33.92,86.74,13.29,12.88,26.49,19.12,31.79,21.28v16.35c0,1.93,1.57,3.5,3.5,3.5h68.04c1.93,0,3.5-1.57,3.5-3.5v-16.35c5.3-2.16,18.5-8.4,31.79-21.28,15.47-15,33.92-42.23,33.92-86.74,0-1.93-1.57-3.5-3.5-3.5h-112.68c.1-.1.19-.2.3-.31,1.68-1.75,3.98-4.14,3.98-8.66s-2.3-6.92-3.98-8.66c-1.44-1.5-2.02-2.17-2.02-3.81s.58-2.31,2.02-3.81c1.68-1.74,3.98-4.13,3.98-8.66s-2.3-6.92-3.98-8.66c-.04-.04-.07-.08-.11-.12h133.04v-7H90.1c.15-.16.3-.32.48-.5ZM85.53,15.89c-1.21,1.26-2.73,2.87-3.49,5.35h-10.46c.15-.16.3-.32.48-.5,1.59-1.65,3.71-3.91,3.94-7.99l11.56-.45c-.05,1.48-.64,2.16-2.01,3.58ZM67,33.21c1.44,1.5,2.02,2.17,2.02,3.81s-.58,2.31-2.02,3.81c-1.68,1.74-3.98,4.13-3.98,8.66s2.3,6.92,3.98,8.66c1.44,1.5,2.02,2.17,2.02,3.81s-.58,2.32-2.02,3.81c-1.18,1.23-2.65,2.79-3.43,5.16h-10.35c.1-.1.19-.2.3-.31,1.68-1.75,3.98-4.14,3.98-8.66s-2.3-6.92-3.98-8.66c-1.44-1.5-2.02-2.17-2.02-3.81s.58-2.31,2.02-3.81c1.68-1.74,3.98-4.13,3.98-8.66s-2.3-6.92-3.98-8.66c-.04-.04-.07-.08-.11-.12h10.23c.8,2.27,2.21,3.78,3.36,4.97ZM57.41,13.48l11.52-.45c-.21,1.02-.81,1.69-1.93,2.86-1.21,1.26-2.73,2.87-3.49,5.35h-10.46c.15-.16.3-.32.48-.5,1.5-1.55,3.47-3.63,3.89-7.26ZM35,20.74c1.39-1.45,3.19-3.35,3.77-6.53l11.4-.44c-.31.66-.85,1.26-1.69,2.12-1.21,1.26-2.73,2.87-3.49,5.35h-10.46c.15-.16.3-.32.48-.5ZM35,53.3c-1.44-1.5-2.02-2.17-2.02-3.81s.58-2.31,2.02-3.81c1.68-1.74,3.98-4.13,3.98-8.66s-2.3-6.92-3.98-8.66c-.04-.04-.07-.08-.11-.12h10.23c.8,2.27,2.21,3.78,3.36,4.97,1.44,1.5,2.02,2.17,2.02,3.81s-.58,2.31-2.02,3.81c-1.68,1.74-3.98,4.13-3.98,8.66s2.3,6.92,3.98,8.66c1.44,1.5,2.02,2.17,2.02,3.81s-.58,2.32-2.02,3.81c-1.18,1.23-2.65,2.79-3.43,5.16h-10.35c.1-.1.19-.2.3-.31,1.68-1.75,3.98-4.14,3.98-8.66s-2.3-6.92-3.98-8.66ZM167.9,155.93c-15.67,15.29-31.6,20.74-31.75,20.79-1.43.48-2.4,1.81-2.4,3.32v15.27h-61.04v-15.27c0-1.5-.97-2.84-2.39-3.32-.16-.05-16.09-5.5-31.76-20.8-13.52-13.19-22.72-29.29-27.56-48.09h184.46c-4.83,18.8-14.04,34.91-27.56,48.09ZM197.03,100.83H9.42c-1.4-7.26-2.2-14.9-2.38-22.89h192.37c-.18,8-.97,15.63-2.38,22.89ZM85.53,33.21c1.44,1.5,2.02,2.17,2.02,3.81s-.58,2.31-2.02,3.81c-1.68,1.74-3.98,4.13-3.98,8.66s2.3,6.92,3.98,8.66c1.44,1.5,2.02,2.17,2.02,3.81s-.58,2.32-2.02,3.81c-1.18,1.23-2.65,2.79-3.43,5.16h-10.35c.1-.1.19-.2.3-.31,1.68-1.75,3.98-4.14,3.98-8.66s-2.3-6.92-3.98-8.66c-1.44-1.5-2.02-2.17-2.02-3.81s.58-2.31,2.02-3.81c1.68-1.74,3.98-4.13,3.98-8.66s-2.3-6.92-3.98-8.66c-.04-.04-.07-.08-.11-.12h10.23c.8,2.27,2.21,3.78,3.36,4.97Z"/>
</svg>