<?xml version="1.0" encoding="UTF-8"?>
<svg id="_レイヤー_2" data-name="レイヤー_2" xmlns="http://www.w3.org/2000/svg" width="100" height="90.46" viewBox="0 0 100 90.46">
  <defs>
    <style>
      .cls-1 {
        fill: #555;
      }
    </style>
  </defs>
  <g id="img_x5F_about">
    <path class="cls-1" d="M40.5,9.28c.75-.78,1.78-1.85,1.78-3.87,0,0,0-.01,0-.02l57.72-2.25-.12-3.13L1.5,3.84l.12,3.13,12.32-.48c-.14.18-.32.38-.55.62-.54.56-1.22,1.28-1.56,2.39H1.57v3.13h10.33c.36,1.01.99,1.69,1.5,2.22.64.67.9.97.9,1.7s-.26,1.03-.9,1.7c-.75.78-1.78,1.85-1.78,3.87s1.03,3.09,1.78,3.87c.64.67.9.97.9,1.7s-.26,1.04-.9,1.7c-.53.55-1.18,1.25-1.53,2.31H1.57c-.86,0-1.57.7-1.57,1.57,0,19.9,8.25,32.08,15.17,38.79,5.94,5.76,11.85,8.55,14.21,9.51v7.31c0,.86.7,1.57,1.57,1.57h30.42c.86,0,1.57-.7,1.57-1.57v-7.31c2.37-.97,8.27-3.75,14.21-9.51,6.92-6.71,15.17-18.88,15.17-38.79,0-.86-.7-1.57-1.57-1.57h-50.38s.08-.09.13-.14c.75-.78,1.78-1.85,1.78-3.87s-1.03-3.09-1.78-3.87c-.64-.67-.9-.97-.9-1.7s.26-1.03.9-1.7c.75-.78,1.78-1.85,1.78-3.87s-1.03-3.09-1.78-3.87c-.02-.02-.03-.03-.05-.05h59.49v-3.13h-59.65c.07-.07.14-.14.21-.22ZM38.24,7.1c-.54.56-1.22,1.28-1.56,2.39h-4.68c.07-.07.14-.14.21-.22.71-.74,1.66-1.75,1.76-3.57l5.17-.2c-.02.66-.29.97-.9,1.6ZM29.96,14.85c.64.67.9.97.9,1.7s-.26,1.03-.9,1.7c-.75.78-1.78,1.85-1.78,3.87s1.03,3.09,1.78,3.87c.64.67.9.97.9,1.7s-.26,1.04-.9,1.7c-.53.55-1.18,1.25-1.53,2.31h-4.63s.08-.09.13-.14c.75-.78,1.78-1.85,1.78-3.87s-1.03-3.09-1.78-3.87c-.64-.67-.9-.97-.9-1.7s.26-1.03.9-1.7c.75-.78,1.78-1.85,1.78-3.87s-1.03-3.09-1.78-3.87c-.02-.02-.03-.03-.05-.05h4.57c.36,1.01.99,1.69,1.5,2.22ZM25.67,6.03l5.15-.2c-.09.46-.36.76-.86,1.28-.54.56-1.22,1.28-1.56,2.39h-4.68c.07-.07.14-.14.21-.22.67-.69,1.55-1.62,1.74-3.25ZM15.65,9.28c.62-.65,1.43-1.5,1.69-2.92l5.1-.2c-.14.3-.38.56-.75.95-.54.56-1.22,1.28-1.56,2.39h-4.68c.07-.07.14-.14.21-.22ZM15.65,23.83c-.64-.67-.9-.97-.9-1.7s.26-1.03.9-1.7c.75-.78,1.78-1.85,1.78-3.87s-1.03-3.09-1.78-3.87c-.02-.02-.03-.03-.05-.05h4.57c.36,1.01.99,1.69,1.5,2.22.64.67.9.97.9,1.7s-.26,1.03-.9,1.7c-.75.78-1.78,1.85-1.78,3.87s1.03,3.09,1.78,3.87c.64.67.9.97.9,1.7s-.26,1.04-.9,1.7c-.53.55-1.18,1.25-1.53,2.31h-4.63s.08-.09.13-.14c.75-.78,1.78-1.85,1.78-3.87s-1.03-3.09-1.78-3.87ZM75.08,69.72c-7.01,6.84-14.13,9.27-14.2,9.3-.64.21-1.07.81-1.07,1.49v6.83h-27.29v-6.83c0-.67-.43-1.27-1.07-1.48-.07-.02-7.19-2.46-14.2-9.3-6.04-5.9-10.16-13.1-12.32-21.5h82.48c-2.16,8.41-6.28,15.61-12.32,21.5ZM88.1,45.09H4.21c-.63-3.25-.98-6.66-1.06-10.24h86.02c-.08,3.58-.43,6.99-1.06,10.24ZM38.24,14.85c.64.67.9.97.9,1.7s-.26,1.03-.9,1.7c-.75.78-1.78,1.85-1.78,3.87s1.03,3.09,1.78,3.87c.64.67.9.97.9,1.7s-.26,1.04-.9,1.7c-.53.55-1.18,1.25-1.53,2.31h-4.63s.08-.09.13-.14c.75-.78,1.78-1.85,1.78-3.87s-1.03-3.09-1.78-3.87c-.64-.67-.9-.97-.9-1.7s.26-1.03.9-1.7c.75-.78,1.78-1.85,1.78-3.87s-1.03-3.09-1.78-3.87c-.02-.02-.03-.03-.05-.05h4.57c.36,1.01.99,1.69,1.5,2.22Z"/>
  </g>
</svg>