<?xml version="1.0" encoding="UTF-8"?>
<svg id="_レイヤー_2" data-name="レイヤー_2" xmlns="http://www.w3.org/2000/svg" viewBox="0 0 29.23 36.52">
  <defs>
    <style>
      .cls-1 {
        font-family: ZenKakuGothicNew-Light, 'Zen Kaku Gothic New';
        font-size: 5.56px;
        font-weight: 300;
      }

      .cls-1, .cls-2 {
        fill: #555;
      }
    </style>
  </defs>
  <g id="img">
    <text class="cls-1" transform="translate(8.87 4.89)"><tspan x="0" y="0">Sass</tspan></text>
    <path class="cls-2" d="M14.62,7.29c8.07,0,14.62,6.54,14.62,14.62s-6.54,14.62-14.62,14.62S0,29.98,0,21.91,6.54,7.29,14.62,7.29M11.69,26.78c.23.79.2,1.52,0,2.19,0,.07-.06.15-.09.25-.03,0-.06.1-.1.18-.16.35-.39.69-.67.98-.85.94-2.06,1.29-2.54.99-.56-.32-.25-1.64.72-2.67,1.05-1.11,2.57-1.84,2.57-1.84h0l.12-.07M23.78,13.55c-.66-2.6-4.97-3.45-9.03-2-2.43.86-5.06,2.21-6.94,3.98-2.24,2.1-2.6,3.93-2.46,4.69.5,2.69,4.21,4.46,5.73,5.76h0c-.44.23-3.71,1.89-4.5,3.58-.79,1.78.15,3.07.73,3.24,1.96.53,3.93-.42,4.98-2.02,1.02-1.52.95-3.49.5-4.49.61-.15,1.33-.22,2.24-.12,2.57.31,3.07,1.9,2.97,2.57-.09.67-.63,1.04-.8,1.15-.18.1-.23.15-.22.23.01.12.1.12.25.09.22-.04,1.36-.54,1.4-1.78.06-1.58-1.45-3.33-4.11-3.29-1.1.03-1.78.13-2.28.32l-.12-.13c-1.65-1.75-4.69-3-4.56-5.36.04-.86.34-3.11,5.85-5.86,4.5-2.25,8.11-1.64,8.74-.25.89,1.94-1.93,5.58-6.61,6.11-1.78.2-2.73-.5-2.97-.75-.25-.25-.28-.29-.37-.25-.16.1-.06.34,0,.48.13.37.72.98,1.68,1.33.86.28,2.97.44,5.5-.54,2.84-1.1,5.06-4.15,4.4-6.71Z"/>
  </g>
</svg>