<?xml version="1.0" encoding="UTF-8"?>
<svg id="_レイヤー_2" data-name="レイヤー_2" xmlns="http://www.w3.org/2000/svg" width="38.04" height="48" viewBox="0 0 38.04 48">
  <defs>
    <style>
      .cls-1 {
        font-family: ZenKakuGothicNew-Light, 'Zen Kaku Gothic New';
        font-size: 7.61px;
        font-weight: 300;
      }

      .cls-1, .cls-2 {
        fill: #555;
      }
    </style>
  </defs>
  <g id="img_x5F_about">
    <g>
      <text class="cls-1" transform="translate(11.16 6.7)"><tspan x="0" y="0">Sass</tspan></text>
      <path class="cls-2" d="M19.02,9.96c10.51,0,19.02,8.52,19.02,19.02s-8.52,19.02-19.02,19.02S0,39.48,0,28.98,8.52,9.96,19.02,9.96M15.22,35.31c.3,1.03.27,1.98,0,2.85,0,.1-.08.19-.11.32-.04,0-.08.13-.13.23-.21.46-.51.89-.88,1.27-1.1,1.22-2.68,1.67-3.31,1.29-.72-.42-.32-2.13.93-3.48,1.37-1.45,3.35-2.4,3.35-2.4h0l.15-.1M30.95,18.1c-.86-3.39-6.47-4.49-11.76-2.61-3.16,1.12-6.58,2.87-9.04,5.17-2.91,2.74-3.39,5.12-3.2,6.11.65,3.5,5.48,5.8,7.46,7.49v.02c-.57.29-4.83,2.43-5.86,4.64-1.03,2.32.19,3.99.95,4.22,2.55.68,5.12-.55,6.49-2.63,1.33-1.98,1.24-4.55.65-5.84.8-.19,1.73-.29,2.91-.15,3.35.4,3.99,2.47,3.86,3.35-.11.88-.82,1.35-1.05,1.5-.23.13-.3.19-.29.3.02.15.13.15.32.11.29-.06,1.77-.7,1.83-2.32.08-2.05-1.88-4.34-5.35-4.28-1.43.04-2.32.17-2.97.42l-.15-.17c-2.15-2.28-6.11-3.9-5.94-6.98.06-1.12.44-4.05,7.61-7.63,5.86-2.93,10.56-2.13,11.38-.32,1.16,2.53-2.51,7.27-8.6,7.95-2.32.27-3.56-.65-3.86-.97-.32-.32-.36-.38-.48-.32-.21.13-.08.44,0,.63.17.48.93,1.27,2.19,1.73,1.12.36,3.86.57,7.15-.7,3.69-1.43,6.58-5.4,5.73-8.73Z"/>
    </g>
  </g>
</svg>