<?xml version="1.0" encoding="UTF-8"?>
<svg id="_レイヤー_2" data-name="レイヤー_2" xmlns="http://www.w3.org/2000/svg" viewBox="0 0 261.76 205.55">
  <defs>
    <style>
      .cls-1 {
        stroke: #000;
        stroke-linecap: round;
        stroke-linejoin: round;
        stroke-width: 3px;
      }

      .cls-1, .cls-2 {
        fill: #fff;
      }
    </style>
  </defs>
  <g>
    <path class="cls-2" d="M83.1,57.48c-1.95-6.49-7.08-11.61-13.57-13.57,6.49-1.95,11.62-7.08,13.57-13.57,1.95,6.49,7.08,11.61,13.57,13.57-6.49,1.95-11.62,7.08-13.57,13.57Z"/>
    <path d="M83.1,32.84c2.13,4.96,6.12,8.94,11.08,11.08-4.96,2.13-8.94,6.12-11.08,11.08-2.13-4.96-6.12-8.94-11.08-11.08,4.96-2.13,8.94-6.12,11.08-11.08M83.1,24.53c0,10.71-8.68,19.39-19.39,19.39,10.71,0,19.39,8.68,19.39,19.39,0-10.71,8.68-19.39,19.39-19.39-10.71,0-19.39-8.68-19.39-19.39h0Z"/>
  </g>
  <g>
    <path class="cls-2" d="M47.9,38.94c-1.5-4.22-4.85-7.56-9.06-9.06,4.22-1.5,7.56-4.85,9.06-9.06,1.5,4.22,4.85,7.56,9.06,9.06-4.21,1.5-7.56,4.85-9.06,9.06Z"/>
    <path d="M47.9,22.98c1.51,2.97,3.94,5.39,6.91,6.91-2.97,1.51-5.39,3.94-6.91,6.91-1.51-2.97-3.94-5.39-6.91-6.91,2.97-1.51,5.39-3.94,6.91-6.91M47.9,15.85c0,7.75-6.28,14.03-14.03,14.03,7.75,0,14.03,6.28,14.03,14.03,0-7.75,6.28-14.03,14.03-14.03-7.75,0-14.03-6.28-14.03-14.03h0Z"/>
  </g>
  <g>
    <path class="cls-2" d="M51.73,76.87c-1.95-6.49-7.08-11.61-13.57-13.57,6.49-1.95,11.62-7.08,13.57-13.57,1.95,6.49,7.08,11.61,13.57,13.57-6.49,1.95-11.62,7.08-13.57,13.57Z"/>
    <path d="M51.73,52.23c2.13,4.96,6.12,8.94,11.08,11.08-4.96,2.13-8.94,6.12-11.08,11.08-2.13-4.96-6.12-8.94-11.08-11.08,4.96-2.13,8.94-6.12,11.08-11.08M51.73,43.91c0,10.71-8.68,19.39-19.39,19.39,10.71,0,19.39,8.68,19.39,19.39,0-10.71,8.68-19.39,19.39-19.39-10.71,0-19.39-8.68-19.39-19.39h0Z"/>
  </g>
  <g>
    <rect class="cls-1" x="206.99" y="50.32" width="11.56" height="46.24"/>
    <polygon class="cls-1" points="41.3 126.1 75.98 72.15 180.02 72.15 180.02 126.1 41.3 126.1"/>
    <polygon class="cls-1" points="187.3 64.45 148.56 108.12 148.56 195.46 225.62 195.46 225.62 108.12 226.05 108.12 187.3 64.45"/>
    <polygon class="cls-1" points="187.09 52.89 130.56 116.02 137.63 122.24 187.09 68.3 237.82 122.24 244.89 116.02 187.09 52.89"/>
    <rect class="cls-1" x="49.01" y="126.1" width="99.55" height="69.36"/>
    <line class="cls-1" x1="20.34" y1="195.46" x2="248.96" y2="195.46"/>
    <ellipse class="cls-1" cx="49.01" cy="153.88" rx="18.41" ry="21.83"/>
    <line class="cls-1" x1="49.01" y1="175.71" x2="49.01" y2="195.46"/>
    <rect class="cls-1" x="83.99" y="140.68" width="34.23" height="34.23"/>
    <rect class="cls-1" x="83.99" y="140.68" width="34.23" height="20.1"/>
    <rect class="cls-1" x="170.71" y="189.21" width="34.23" height="6.42"/>
    <path class="cls-1" d="M174.88,142.12h18.56c3.94,0,7.13,3.2,7.13,7.13v32.83c0,3.94-3.2,7.13-7.13,7.13h-18.56v-47.09h0Z" transform="translate(375.46 331.33) rotate(180)"/>
    <circle class="cls-1" cx="188.88" cy="106.25" r="9.69"/>
  </g>
</svg>