<?xml version="1.0" encoding="UTF-8"?>
<svg id="_レイヤー_2" data-name="レイヤー_2" xmlns="http://www.w3.org/2000/svg" width="123" height="99.47" viewBox="0 0 123 99.47">
  <defs>
    <style>
      .cls-1 {
        stroke-miterlimit: 10;
        stroke-width: 2px;
      }

      .cls-1, .cls-2 {
        fill: #fff;
      }

      .cls-1, .cls-2, .cls-3 {
        stroke: #555;
      }

      .cls-2, .cls-3 {
        stroke-linecap: round;
        stroke-linejoin: round;
        stroke-width: 3px;
      }

      .cls-3 {
        fill: none;
      }
    </style>
  </defs>
  <g id="img_x5F_about">
    <g>
      <g>
        <rect class="cls-2" x="99.47" y="21.7" width="6.07" height="24.27"/>
        <polygon class="cls-2" points="12.5 61.48 30.7 33.16 85.31 33.16 85.31 61.48 12.5 61.48"/>
        <polygon class="cls-2" points="89.14 29.12 68.8 52.04 68.8 97.88 109.25 97.88 109.25 52.04 109.47 52.04 89.14 29.12"/>
        <polygon class="cls-2" points="89.03 23.05 59.35 56.19 63.06 59.45 89.03 31.14 115.65 59.45 119.36 56.19 89.03 23.05"/>
        <rect class="cls-2" x="16.55" y="61.48" width="52.25" height="36.41"/>
        <line class="cls-3" x1="1.5" y1="97.88" x2="121.5" y2="97.88"/>
        <ellipse class="cls-2" cx="16.55" cy="76.06" rx="9.66" ry="11.46"/>
        <line class="cls-3" x1="16.55" y1="87.52" x2="16.55" y2="97.88"/>
        <rect class="cls-2" x="34.91" y="69.13" width="17.97" height="17.97"/>
        <rect class="cls-2" x="34.91" y="69.13" width="17.97" height="10.55"/>
        <rect class="cls-2" x="80.43" y="94.6" width="17.97" height="3.37"/>
        <path class="cls-2" d="M96.11,94.6h-9.74c-2.07,0-3.74-1.68-3.74-3.74v-17.23c0-2.07,1.68-3.74,3.74-3.74h9.74v24.72h0Z"/>
        <circle class="cls-2" cx="89.96" cy="51.06" r="5.09"/>
      </g>
      <path class="cls-1" d="M24.33,33.16c-5.56,0-10.07,4.51-10.07,10.07,0-5.56-4.51-10.07-10.07-10.07,5.56,0,10.07-4.51,10.07-10.07,0,5.56,4.51,10.07,10.07,10.07Z"/>
      <path class="cls-1" d="M37.79,13.46c-7.43,0-13.46,6.02-13.46,13.46,0-7.43-6.02-13.46-13.46-13.46,7.43,0,13.46-6.02,13.46-13.46,0,7.43,6.02,13.46,13.46,13.46Z"/>
      <path class="cls-1" d="M42.64,21.7c-2.68,0-4.85,2.17-4.85,4.85,0-2.68-2.17-4.85-4.85-4.85,2.68,0,4.85-2.17,4.85-4.85,0,2.68,2.17,4.85,4.85,4.85Z"/>
    </g>
  </g>
</svg>