<?xml version="1.0" encoding="UTF-8"?>
<svg id="_レイヤー_2" data-name="レイヤー_2" xmlns="http://www.w3.org/2000/svg" width="655.3" height="246.57" viewBox="0 0 655.3 246.57">
  <defs>
    <style>
      .cls-1 {
        fill: #d48d95;
      }
    </style>
  </defs>
  <g id="img">
    <path class="cls-1" d="M655.04.05c-25.47,31.25-56.67,57.64-91.55,77.84-34.85,20.19-73.3,34.2-113.05,40.76-18.27,3.01-41.85,6.63-57.04-6.83-5.99-5.3-8.28-13.07-7.26-20.9.87-6.78,4.4-14.3,11.16-16.92,7.24-2.8,15.14,1.19,18.61,7.76,3.69,6.97,3.62,15.7,2.12,23.26-3.59,18.07-20.47,32.94-18.26,52.35,1.8,15.8,18.12,23.44,32.57,20.08,16.83-3.92,25.95-21.62,27.71-37.55,1.87-16.85-3.94-36.09-21.17-42.43-15.62-5.74-34.06.17-46.49,10.33-15.78,12.9-25.34,31.37-37.33,47.47-12.86,17.26-28.97,32.08-47.23,43.48-38.65,24.14-84.78,29.98-128.98,36.49-23.71,3.49-47.47,6.39-71.46,6.9s-50.14.73-75.22,2.1c-10.68.58-21.35,1.27-32.02,2.02-.2.01-.2.33,0,.32,31.35-2.21,62.69-3.61,94.11-3.94,20.62-.21,41.02-1.35,61.5-3.92,18.1-2.26,36.14-5.08,54.14-8,23.06-3.74,46.04-8.19,67.89-16.68,19.5-7.58,37.6-18.38,53.29-32.25,7.87-6.96,15.12-14.62,21.6-22.89s11.63-16.45,17.36-24.73c11.58-16.77,25.38-33.16,46.3-37.52,9.21-1.92,19.3-1.36,27.53,3.54,9.16,5.46,14.15,15.35,15.66,25.65,2.77,18.89-4.91,44.14-24.87,50.63-8.22,2.67-18.05,1.78-25.23-3.22-9.34-6.51-10.98-18.05-8.08-28.42s9.13-19.53,13.65-29.34c2.94-6.37,4.41-13.56,4.25-20.58-.14-5.99-1.52-12.52-5.69-17.07-3.73-4.08-9.81-6.04-15.19-4.52-11.64,3.28-14.88,19.31-11.5,29.39,5.29,15.8,25.33,19.27,39.75,18.92,19.24-.46,38.85-4.92,57.33-10s37.57-12.17,55.38-20.64c35.76-17.03,68.57-40.31,96.26-68.64,6.89-7.05,13.45-14.42,19.67-22.06.13-.16-.1-.38-.22-.22h0Z"/>
  </g>
</svg>