<?xml version="1.0" encoding="UTF-8"?>
<svg id="_レイヤー_2" xmlns="http://www.w3.org/2000/svg" version="1.1" viewBox="0 0 655.3 246.6">
  <!-- Generator: Adobe Illustrator 29.0.0, SVG Export Plug-In . SVG Version: 2.1.0 Build 186)  -->
  <defs>
    <style>
      .st0 {
        fill: none;
        stroke: #fff;
        stroke-miterlimit: 10;
        stroke-width: .8px;
      }

      .st1 {
        fill: #d48d95;
      }
    </style>
  </defs>
  <g id="img">
    <path class="st1" d="M655,0c-25.5,31.2-56.7,57.6-91.5,77.8-34.8,20.2-73.3,34.2-113,40.8-18.3,3-41.9,6.6-57-6.8-6-5.3-8.3-13.1-7.3-20.9.9-6.8,4.4-14.3,11.2-16.9,7.2-2.8,15.1,1.2,18.6,7.8,3.7,7,3.6,15.7,2.1,23.3-3.6,18.1-20.5,32.9-18.3,52.3,1.8,15.8,18.1,23.4,32.6,20.1,16.8-3.9,26-21.6,27.7-37.6,1.9-16.8-3.9-36.1-21.2-42.4-15.6-5.7-34.1.2-46.5,10.3-15.8,12.9-25.3,31.4-37.3,47.5-12.9,17.3-29,32.1-47.2,43.5-38.6,24.1-84.8,30-129,36.5-23.7,3.5-47.5,6.4-71.5,6.9s-50.1.7-75.2,2.1c-10.7.6-21.4,1.3-32,2-.2,0-.2.3,0,.3,31.4-2.2,62.7-3.6,94.1-3.9,20.6-.2,41-1.4,61.5-3.9,18.1-2.3,36.1-5.1,54.1-8,23.1-3.7,46-8.2,67.9-16.7,19.5-7.6,37.6-18.4,53.3-32.2,7.9-7,15.1-14.6,21.6-22.9s11.6-16.4,17.4-24.7c11.6-16.8,25.4-33.2,46.3-37.5,9.2-1.9,19.3-1.4,27.5,3.5,9.2,5.5,14.1,15.3,15.7,25.7,2.8,18.9-4.9,44.1-24.9,50.6-8.2,2.7-18,1.8-25.2-3.2-9.3-6.5-11-18.1-8.1-28.4s9.1-19.5,13.6-29.3c2.9-6.4,4.4-13.6,4.2-20.6-.1-6-1.5-12.5-5.7-17.1-3.7-4.1-9.8-6-15.2-4.5-11.6,3.3-14.9,19.3-11.5,29.4,5.3,15.8,25.3,19.3,39.8,18.9,19.2-.5,38.9-4.9,57.3-10s37.6-12.2,55.4-20.6c35.8-17,68.6-40.3,96.3-68.6,6.9-7.1,13.5-14.4,19.7-22.1.1-.2,0-.4-.2-.2h0Z"/>
  </g>
  <path class="st0" d="M655.3,0c-25.7,31.7-56.9,57.8-91.8,77.8-34.7,20.4-70.2,32.8-108.8,40.4-14.2,2.1-27.3,5-40.1,2.7s-24.4-7.3-28.3-20.5.5-16.9,4.5-21.9c7-8.8,19.3-7.1,25.2,3.3,5.9,10.4,2.7,26.6-2.6,36.5-3.8,7.7-10,18.4-12.1,26.5s-3.3,19.4,8.2,28.5,30,5.8,39.1-6c10.4-13.7,12.4-23,11.2-39.7s-5.2-19.7-12.3-24.8c-3.3-2.4-8.5-6.2-16.3-6.8-14.6-2.1-33.1,4.8-45.3,18.2-10.4,11.3-15.5,18.7-22.5,29.3-19,28.8-36.8,46-67.7,62.2s-60.4,21.3-91.8,25.9c-40.1,7.2-70.3,9.9-113.8,11.3-37.7-.1-90.3,3.4-90.3,3.4"/>
</svg>