<?xml version="1.0" encoding="UTF-8"?>
<svg id="_レイヤー_2" data-name="レイヤー_2" xmlns="http://www.w3.org/2000/svg" width="1961.9" height="295.92" viewBox="0 0 1961.9 295.92">
  <defs>
    <style>
      .cls-1 {
        fill: #d48d95;
      }
    </style>
  </defs>
  <g id="img">
    <path class="cls-1" d="M.53,209.27C82.67,114.61,197.97,57.1,318.25,27.35,382.41,11.49,449.96.99,516.17,1.92c35.5.5,71.06,5.3,104.63,17.19,27.25,9.66,52.82,23.5,76.94,39.34,49.79,32.7,93.6,73.41,141.26,108.98,51.24,38.25,106.45,67.15,170.09,77.81,69.85,11.7,141.22,4.69,211.07-3.26,74.72-8.51,148.92-15.96,224.25-15.04,155.18,1.89,308.67,28.66,460.64,57.93,18.96,3.65,37.91,7.35,56.85,11.04-.25-.05-.23-1.47-.5-1.52-152.04-29.67-304.85-59.41-459.9-67.16-76.38-3.82-152.47-1.31-228.47,7.11-70.57,7.81-141.5,18.38-212.7,14.84-66.87-3.32-129.33-21.88-185.75-58.09-50.19-32.22-94.15-72.88-141.61-108.78S631.35,14.78,570.21,4.92c-68.11-10.99-139.68-1.9-206.94,10.96C242.05,39.06,122.28,87.79,32.07,174.04,20.85,184.76,10.2,196.04.03,207.76c-.19.21.67,1.32.5,1.52h0Z"/>
  </g>
</svg>