<?xml version="1.0" encoding="UTF-8"?>
<svg id="_レイヤー_2" data-name="レイヤー_2" xmlns="http://www.w3.org/2000/svg" width="1921.21" height="1330.36" viewBox="0 0 1921.21 1330.36">
  <defs>
    <style>
      .cls-1 {
        fill: #d48d95;
      }
    </style>
  </defs>
  <g id="img">
    <path class="cls-1" d="M1920.84,3.61c-39.68-10.94-89.71,2.3-96.52,48.55-3.21,21.79,6.06,44.28,14.44,63.84,10.61,24.78,22.97,49.09,29.64,75.32,6.62,26.04,11.05,52.71,7.04,79.55-3.75,25.1-13.18,52.66-30.7,71.49-14.23,15.3-33.2,24.41-50.99,34.78-14.81,8.63-31.58,17.85-33.07,36.9-1.56,19.84,13.41,36.69,19.38,54.5,5.27,15.73.5,31.89-14.57,39.71-12.98,6.74-30.48,5.38-44.51,3.25-25.6-3.88-49.66-14.24-75.15-18.96-10.24-1.9-20.61-5.29-31-7.51-13.16-2.81-26.32-5.61-39.52-8.25-24.88-4.97-49.68-8.12-74.95-10.1s-50.34-4.15-75.55-2.53c-11.79.76-23.36,2.49-34.9,4.96-8.16,1.75-16.51,3.91-22.6,10.02-9.15,9.17-10.63,25.17-5.8,36.75,5.42,13,17.33,22.28,28.51,30.16,16.38,11.56,33.44,20.41,44.78,37.7,19.09,29.12-8.55,56-33.74,67.52-23.11,10.57-48.74,12.84-73.82,13.73-107.26,3.8-213.92-9.23-321.04-11.84-94.88-2.31-197.86-1.29-277.05,58.56-39.1,29.56-69.71,69.3-102.51,105.31s-68.1,73.27-103.68,108.43c-33.88,33.49-68.57,66.33-104.36,97.64-17.1,14.95-34.43,29.3-51.62,44.19-18.89,16.36-37.8,32.48-57.37,48.05-40.85,32.48-82.31,64.36-125.24,94.02-19.53,13.49-38.93,26.95-58.78,39.97-10,6.56-19.04,14.7-29.62,20.25-11.71,6.14-22.32,14.22-33.43,21.38-20.5,13.21-41.52,25.58-62.26,38.39-.57.35-.05,1.26.53.9,21.76-13.45,43.84-26.39,65.28-40.35,10.1-6.57,19.73-13.83,30.41-19.43s19.54-13.62,29.62-20.25c41.09-27,80.96-55.37,120.38-84.75,39.81-29.67,79.27-60.3,116.43-93.24,15.64-13.87,31.6-27.4,47.42-40.84,17.81-15.13,34.72-30.95,51.9-46.68,73.5-67.31,141.79-139.94,207.82-214.52,33.06-37.34,70.22-71.61,117.17-90.44,48.08-19.28,100.66-24.93,152.06-26.03,106.85-2.28,212.98,11.23,319.67,13.09,24.86.43,49.79.11,74.63-1.04,21.55-1,43.34-3.44,63.47-11.67,16.19-6.62,35.4-17.67,41.8-35,7.15-19.35.03-35.1-13.7-49.13-21.2-21.66-72.45-35.89-64.54-74.73,5.69-27.94,43.23-28.85,66.03-30.17,25.82-1.49,51.62.93,77.35,2.92,51.43,3.97,100.63,17.19,150.75,27.28,23.52,4.74,45.67,14.72,69.59,17.72,18.27,2.29,41.43,2.59,53.44-13.94,11.1-15.28,3.65-32.05-3.87-47.05-5.09-10.15-11.03-20.55-12.01-32.1-1.4-16.62,8.41-26.63,21.33-35.09,16.24-10.63,34.23-18.54,49.68-30.39s26.76-28.68,33.89-47.45c17.36-45.72,12.26-94.61-4.94-139.68s-61.35-106.77-18.96-148.42c20.15-19.79,51.52-21.5,77.69-14.29.65.18.93-.83.28-1.01h0Z"/>
  </g>
</svg>