<?xml version="1.0" encoding="UTF-8"?>
<svg id="_レイヤー_2" data-name="レイヤー_2" xmlns="http://www.w3.org/2000/svg" width="2436.22" height="926.81" viewBox="0 0 2436.22 926.81">
  <defs>
    <style>
      .cls-1 {
        fill: #d48d95;
      }
    </style>
  </defs>
  <g id="img">
    <path class="cls-1" d="M2434.82.03c-21.34,4.97-44.41,9.82-62.01,23.73-20.71,16.36-24.61,41.25-24.54,66.26.1,31.45.66,60.42-16.59,88.13s-42.95,45.88-69.88,60.85c-112.7,62.63-249.97,68.58-375.78,63.6-31.12-1.23-62.2-3.23-93.27-5.48-24.88-1.81-49.74-4.26-74.6-.72-19.53,2.79-41.33,9.95-52.42,27.61-13.36,21.26-.2,45.64,12.48,63.6,8.97,12.7,19.49,24.63,26.74,38.48,6.02,11.51,13.32,30.02,3.3,41.5-20.38,23.33-57.18-15.26-70.01-29.24-33.27-36.27-74.52-89.53-131.4-73.92-19.65,5.39-35.2,20.28-38.28,40.86-3.34,22.28,8.7,43.31,22.26,59.97,38.12,46.82,101.69,80.88,118.15,142.77,3.99,15.02,3.6,32.13-7.31,44.29s-29.09,14.5-44.62,13.85c-29.81-1.23-58.55-13.31-86.53-22.59-62.28-20.66-124.24-42.68-189.69-50.96-96.07-12.17-206.76,9.07-268.38,90.35-30.06,39.65-45.15,86.79-67.07,130.88-11.05,22.22-24.16,43.71-41.96,61.21-22.18,21.8-50.37,35.01-80.5,41.81s-65.05,6.94-97.16,7.51-62.85-.1-94.21-1.93c-64.13-3.73-127.94-12.34-190.84-25.34-124.08-25.65-244.55-68.27-357.88-124.82-27.48-13.71-54.51-28.27-81.14-43.56-1.26-.72-2.39,1.22-1.14,1.94,216.85,124.53,465.54,198.82,716.64,196.08,57.44-.63,120.57.11,169.44-34.68,39.35-28.02,59.63-72.73,78.29-115.72,20.48-47.16,42.28-93.61,83.01-126.9,42.22-34.51,96.39-51.88,150.16-56.65,61.09-5.42,122.04,6.32,180.52,23.26,31.92,9.24,63.2,20.36,94.73,30.78,26.03,8.61,52.27,19.27,79.87,21.34,20.46,1.54,44.77-2.05,55.38-21.92s2.63-44.71-7.53-63.32c-14.21-26.03-35.33-47.53-56.69-67.75-22.51-21.31-48.71-41.81-64.19-69.19-16.58-29.32-11.53-66.34,23.61-78.29,32.5-11.05,66.66,5.72,90.79,26.96,22.73,20.01,39.34,46.04,62.71,65.39,11.67,9.66,30.24,21.19,45.94,13.97,14.79-6.8,13.26-25.34,8.59-38.17-10.33-28.33-36.97-47.55-46.57-76.12-11.96-35.61,19.68-55.62,50.23-60.67,27.77-4.59,55.93-1.22,83.76.76,124.05,8.84,252.24,13.93,372.83-21.93,53.94-16.04,113.76-39.67,150.89-83.97,14.72-17.56,24.58-38.8,27.06-61.67,3.49-32.23-7.53-70.81,15.2-98.07,17.07-20.48,45.52-26.24,70.2-31.99,1.41-.33.81-2.5-.6-2.17h0Z"/>
  </g>
</svg>