<?xml version="1.0" encoding="UTF-8"?>
<svg id="_レイヤー_2" data-name="レイヤー_2" xmlns="http://www.w3.org/2000/svg" width="1922.19" height="919.93" viewBox="0 0 1922.19 919.93">
  <defs>
    <style>
      .cls-1 {
        fill: #d48d95;
      }
    </style>
  </defs>
  <g id="img">
    <path class="cls-1" d="M1920.8.05c-16.97,5.19-33.5,13.43-44.71,27.63-13.69,17.33-14.78,39.52-14.17,60.69.75,26.33,1.04,52.34-11.51,76.36-11.57,22.15-30.24,40.16-50.73,54.12s-44.25,24.82-67.75,33.83c-12.29,4.71-24.77,8.9-37.38,12.64-11.65,3.45-23.34,7.55-35.04,10.57-53.31,13.79-108.61,18.39-163.44,20.29-54.01,1.87-107.95-1.21-161.81-4.98-26.54-1.86-53.23-4.98-79.84-5.31-20.86-.26-42.89,2.84-59.83,15.98-12.7,9.85-21.64,24.99-19.68,41.47,2.3,19.32,15.68,35.53,27.32,50.23s26.82,32.58,26.79,52.11c-.02,14.68-13.8,23.16-27.52,20.73-11.41-2.02-21.32-9.75-29.99-16.96-34.38-28.58-56.03-71.37-99.4-88.85-34.34-13.83-80.38-5.53-88.34,36.16-8.17,42.84,34.75,77.24,62.65,102.21,18.85,16.87,37.58,34.87,52.83,55.12,15.26,20.26,31.25,46.92,26.1,73.29-2.38,12.2-10.8,21.7-21.75,27.2-13.86,6.96-29.58,4.78-44.27,2.22-25.05-4.37-49.37-11.48-73.37-19.79-50.41-17.45-99.88-36.1-152.35-46.7-49.31-9.96-100.29-13.51-150.04-4.51-46.47,8.41-88.15,27.1-125.09,56.6-18.84,15.05-34.3,34.18-46.89,54.69-12.56,20.46-21.12,42.35-30.84,64.13-10.29,23.07-18.92,46.73-32.12,68.4s-29.49,40.84-50.11,55.19c-44.56,31.03-102.8,31.21-155.04,32.28-27.47.56-54.98.34-82.43-1.05s-55.64-2.82-83.01-6.53c-25.55-3.46-51.23-5.94-76.64-10.43-1.42-.25-2.02,1.92-.6,2.17,51.62,9.13,104.21,13.99,156.5,16.84s109.4,2.74,163.36-3.55c46.13-5.38,86.25-25.59,115.12-62.37,30.52-38.87,42.89-87.22,65.04-130.48,11.76-22.97,25.31-45.1,43.52-63.61,16.87-17.15,37.84-31.11,58.72-42.93,45.89-25.98,102.89-34.02,154.88-32.05,54.17,2.06,107.94,14.96,159.25,31.91s97.9,38.39,150.06,45.3c19.11,2.53,38.09.74,51.62-14.56,12.72-14.37,11.31-36.04,4.97-52.89-16.19-43.06-53.17-74.97-86.44-104.86-18.48-16.6-38.4-35.32-47.75-58.89s-3.75-50.03,17.6-64.27c22.48-14.99,53.39-8.95,75.56,3.4,21.99,12.26,39.51,31.28,55.9,50.05s58.95,72.91,86.99,42.83c9.63-10.33,4.97-25.98-.33-37.2-8.55-18.12-23.03-32.28-34.22-48.65-14.15-20.7-20.86-45.19-2.02-65.39,17.92-19.22,45.4-22.42,70.29-21.6,53.9,1.79,107.63,8.09,161.56,10.04,105.61,3.82,212.29-5.43,311.55-43.46,42.05-16.11,85.32-37.91,111.79-75.8,12.72-18.21,19.07-38.99,20.21-61.09,1.28-24.7-4.43-50.59,5.01-74.28,8.89-22.32,29.82-34.7,51.86-41.45,1.38-.42.79-2.59-.6-2.17h0Z"/>
  </g>
</svg>