<?xml version="1.0" encoding="UTF-8"?>
<svg id="_レイヤー_2" data-name="レイヤー_2" xmlns="http://www.w3.org/2000/svg" width="767.82" height="117.5" viewBox="0 0 767.82 117.5">
  <defs>
    <style>
      .cls-1 {
        fill: #d48d95;
      }
    </style>
  </defs>
  <g id="img">
    <path class="cls-1" d="M.82,83.62C33.19,46.39,78.53,23.85,125.9,12.27c24.86-6.08,51-10.1,76.64-9.74s50.17,8.26,72.07,22.86c19.22,12.81,36.21,28.59,54.73,42.34,19.86,14.75,41.27,25.83,65.88,29.96,27.39,4.59,55.39,1.82,82.78-1.3,29.17-3.32,58.13-6.21,87.53-5.85,68.24.84,135.53,13.94,202.28,26.97-.38-.07-.36-2.29-.78-2.38-59.76-11.66-119.82-23.35-180.77-26.31-29.53-1.43-58.95-.43-88.34,2.82s-56.09,7.32-84.3,5.76c-25.77-1.43-49.82-8.69-71.57-22.64-19.46-12.49-36.52-28.23-54.9-42.18S247.12,5.8,222.97,1.92c-26.6-4.28-54.56-.74-80.84,4.28C88.65,16.42,36.32,39.52.04,81.24c-.29.33,1.05,2.07.78,2.38h0Z"/>
  </g>
</svg>