<?xml version="1.0" encoding="UTF-8"?>
<svg id="_レイヤー_2" xmlns="http://www.w3.org/2000/svg" version="1.1" viewBox="0 0 1922.2 919.9">
  <!-- Generator: Adobe Illustrator 29.0.0, SVG Export Plug-In . SVG Version: 2.1.0 Build 186)  -->
  <defs>
    <style>
      .st0 {
        fill: #d48d95;
      }
    </style>
  </defs>
  <g id="img">
    <path class="st0" d="M1344,276.4c-6.8,2.1-13.4,5.4-17.8,11-5.5,6.9-5.9,15.8-5.7,24.2.3,10.5.4,20.9-4.6,30.5-4.6,8.8-12.1,16-20.2,21.6-8.2,5.6-17.7,9.9-27,13.5-4.9,1.9-9.9,3.6-14.9,5-4.6,1.4-9.3,3-14,4.2-21.3,5.5-43.3,7.3-65.2,8.1-21.6.7-43.1-.5-64.6-2-10.6-.7-21.2-2-31.9-2.1-8.3-.1-17.1,1.1-23.9,6.4-5.1,3.9-8.6,10-7.9,16.5.9,7.7,6.3,14.2,10.9,20s10.7,13,10.7,20.8c0,5.9-5.5,9.2-11,8.3-4.6-.8-8.5-3.9-12-6.8-13.7-11.4-22.4-28.5-39.7-35.5-13.7-5.5-32.1-2.2-35.2,14.4-3.3,17.1,13.9,30.8,25,40.8,7.5,6.7,15,13.9,21.1,22,6.1,8.1,12.5,18.7,10.4,29.2-.9,4.9-4.3,8.7-8.7,10.9-5.5,2.8-11.8,1.9-17.7.9-10-1.7-19.7-4.6-29.3-7.9-20.1-7-39.9-14.4-60.8-18.6-19.7-4-40-5.4-59.9-1.8-18.5,3.4-35.2,10.8-49.9,22.6-7.5,6-13.7,13.6-18.7,21.8-5,8.2-8.4,16.9-12.3,25.6-4.1,9.2-7.5,18.6-12.8,27.3s-11.8,16.3-20,22c-17.8,12.4-41,12.5-61.9,12.9-11,.2-21.9.1-32.9-.4-11-.6-22.2-1.1-33.1-2.6-10.2-1.4-20.4-2.4-30.6-4.2-.6,0-.8.8-.2.9,20.6,3.6,41.6,5.6,62.4,6.7,20.9,1.1,43.7,1.1,65.2-1.4,18.4-2.1,34.4-10.2,45.9-24.9,12.2-15.5,17.1-34.8,26-52.1,4.7-9.2,10.1-18,17.4-25.4,6.7-6.8,15.1-12.4,23.4-17.1,18.3-10.4,41.1-13.6,61.8-12.8,21.6.8,43.1,6,63.5,12.7,20.5,6.8,39.1,15.3,59.9,18.1,7.6,1,15.2.3,20.6-5.8,5.1-5.7,4.5-14.4,2-21.1-6.5-17.2-21.2-29.9-34.5-41.8-7.4-6.6-15.3-14.1-19.1-23.5-3.7-9.4-1.5-20,7-25.6,9-6,21.3-3.6,30.2,1.4,8.8,4.9,15.8,12.5,22.3,20s23.5,29.1,34.7,17.1c3.8-4.1,2-10.4-.1-14.8-3.4-7.2-9.2-12.9-13.7-19.4-5.6-8.3-8.3-18-.8-26.1,7.2-7.7,18.1-8.9,28-8.6,21.5.7,42.9,3.2,64.5,4,42.1,1.5,84.7-2.2,124.3-17.3,16.8-6.4,34-15.1,44.6-30.2,5.1-7.3,7.6-15.6,8.1-24.4.5-9.9-1.8-20.2,2-29.6,3.5-8.9,11.9-13.8,20.7-16.5.6-.2.3-1-.2-.9h0Z"/>
  </g>
</svg>