<?xml version="1.0" encoding="UTF-8"?>
<svg id="_レイヤー_2" data-name="レイヤー_2" xmlns="http://www.w3.org/2000/svg" width="104.11" height="88.61" viewBox="0 0 104.11 88.61">
  <defs>
    <style>
      .cls-1 {
        fill: #555;
      }
    </style>
  </defs>
  <g id="img_x5F_about">
    <g>
      <path class="cls-1" d="M71.11,50.14c-.6-2.25-2.94-3.56-5.18-2.91l-8.4,2.46-11.37-13.23c-.14-.17-.36-.26-.57-.24l-3.49.21c-.52.03-.83.61-.56,1.06l8.62,14.41-11.78,3.62-5.52-1.95,3.41,12.73,3.81-4.45,12.01-2.75-.26,16.79c0,.53.54.87,1.01.64l3.13-1.56c.2-.1.34-.28.38-.5l3.23-17.15,8.51-2.06c2.26-.55,3.63-2.86,3.03-5.11h0Z"/>
      <path class="cls-1" d="M94.35,19.24h-13.1v-7.26c0-6.61-5.38-11.98-11.98-11.98h-34.41c-6.61,0-11.98,5.38-11.98,11.98v7.26h-13.1c-5.39,0-9.77,4.38-9.77,9.77v49.83c0,5.39,4.38,9.77,9.77,9.77h84.58c5.39,0,9.77-4.38,9.77-9.77V29.01c0-5.39-4.38-9.77-9.77-9.77ZM25.85,11.98c0-4.96,4.04-9,9-9h34.41c4.96,0,9,4.04,9,9v7.26H25.85v-7.26ZM16.41,85.62h-6.64c-3.74,0-6.78-3.04-6.78-6.78V29.01c0-3.74,3.04-6.78,6.78-6.78h6.64v63.39ZM101.13,78.84c0,3.74-3.04,6.78-6.78,6.78h-6.64v-27.27l-.63.37c-.67.39-1.42.58-2.18.58-.06,0-.11,0-.17-.01v26.33H19.4V22.23h65.32v4.05l2.42.36c.19.03.38.07.56.13v-4.54h6.64c3.74,0,6.78,3.04,6.78,6.78v49.83Z"/>
      <path class="cls-1" d="M87.79,30.21c-.23-.39-.62-.66-1.07-.73l-8.46-1.27c-.69-.1-1.36.28-1.61.93l-3.13,7.96c-.17.42-.13.9.1,1.29l9.98,17.28c.2.34.52.59.91.7.13.03.26.05.39.05.26,0,.52-.07.75-.2l11.58-6.69c.71-.41.96-1.33.55-2.04l-9.98-17.28ZM85.43,52.89l-8.87-15.37,2.43-6.18,6.57.99,8.87,15.37-9,5.19Z"/>
      <path class="cls-1" d="M80.7,34.31c-.82.47-1.1,1.52-.63,2.33.47.82,1.52,1.1,2.33.63.82-.47,1.1-1.52.63-2.33-.47-.82-1.52-1.1-2.33-.63Z"/>
    </g>
  </g>
</svg>