<?xml version="1.0" encoding="UTF-8"?>
<svg id="_レイヤー_1" data-name="レイヤー_1" xmlns="http://www.w3.org/2000/svg" viewBox="0 0 226.5 192.76">
  <defs>
    <style>
      .cls-1 {
        fill: #1f1f1f;
      }
    </style>
  </defs>
  <path class="cls-1" d="M154.69,109.09c-1.31-4.9-6.4-7.76-11.26-6.33l-18.27,5.36-24.73-28.79c-.31-.36-.77-.56-1.25-.53l-7.59.46c-1.14.07-1.8,1.32-1.22,2.31l18.76,31.34-25.63,7.88-12.02-4.25,7.42,27.69,8.28-9.69,26.14-5.98-.58,36.52c-.02,1.14,1.18,1.9,2.21,1.39l6.81-3.39c.43-.21.73-.61.82-1.08l7.02-37.3,18.5-4.49c4.93-1.2,7.9-6.22,6.59-11.11h0Z"/>
  <path class="cls-1" d="M205.25,41.86h-28.49v-15.79c0-14.38-11.7-26.07-26.07-26.07h-74.87c-14.38,0-26.07,11.7-26.07,26.07v15.79h-28.49C9.53,41.86,0,51.39,0,63.11v108.4c0,11.72,9.53,21.25,21.25,21.25h184c11.72,0,21.25-9.53,21.25-21.25V63.11c0-11.72-9.53-21.25-21.25-21.25ZM56.24,26.07c0-10.79,8.78-19.57,19.57-19.57h74.87c10.79,0,19.57,8.78,19.57,19.57v15.79H56.24v-15.79ZM35.7,186.26h-14.45c-8.13,0-14.75-6.62-14.75-14.75V63.11c0-8.13,6.62-14.75,14.75-14.75h14.45v137.9ZM220,171.51c0,8.13-6.62,14.75-14.75,14.75h-14.45v-59.33l-1.38.8c-1.46.84-3.1,1.27-4.75,1.27-.12,0-.25-.02-.37-.02v57.29H42.2V48.36h142.1v8.8l5.27.79c.42.06.83.16,1.23.28v-9.87h14.45c8.13,0,14.75,6.62,14.75,14.75v108.4Z"/>
  <path class="cls-1" d="M190.98,65.72c-.5-.86-1.35-1.44-2.33-1.59l-18.4-2.76c-1.51-.23-2.96.62-3.51,2.03l-6.8,17.31c-.36.92-.29,1.96.21,2.81l21.71,37.6c.43.75,1.14,1.29,1.97,1.51.28.07.56.11.84.11.57,0,1.13-.15,1.62-.44l25.2-14.55c1.55-.9,2.09-2.88,1.19-4.44l-21.71-37.6ZM185.86,115.06l-19.3-33.43,5.28-13.45,14.29,2.15,19.3,33.43-19.57,11.3Z"/>
  <path class="cls-1" d="M175.57,74.64c-1.78,1.03-2.39,3.3-1.36,5.07,1.03,1.78,3.3,2.39,5.07,1.36,1.78-1.03,2.39-3.3,1.36-5.07-1.03-1.78-3.3-2.39-5.07-1.36Z"/>
</svg>