<?xml version="1.0" encoding="UTF-8"?>
<svg id="_レイヤー_2" data-name="レイヤー_2" xmlns="http://www.w3.org/2000/svg" viewBox="0 0 674.35 2804.74">
  <defs>
    <style>
      .cls-1 {
        fill: #d48d95;
      }
    </style>
  </defs>
  <g id="img_x5F_works">
    <path class="cls-1" d="M10.65.51C-10.99,58.8,3.27,122.5,27.36,177.72c21.91,50.22,53.9,95.91,92.97,134.28,39.07,38.38,85.3,69.54,135.84,90.74,43.91,18.42,103.43,38.16,148.67,13,30.82-17.15,42.25-61.33,18.7-89.76-10.21-12.32-26.22-16.47-41.26-10.99-19.76,7.19-31.91,28.34-35.31,48.18-5.15,30,7.26,59.93,12.75,88.95s5.07,60.7.39,90.75c-8.76,56.16-30.5,109.29-50.56,162.13-19.45,51.23-38.78,103.72-43.65,158.71-5,56.52,9.21,110.2,37.56,159.03,31.21,53.75,74.45,99.25,114.56,146.29,47.12,55.28,92.17,112.32,135,170.99,40.38,55.3,82.6,112.38,105.16,177.73,21.26,61.59,18.5,125.52-4.92,186.02-22.45,58.01-59.17,109.38-96.41,158.68-38.71,51.25-78.35,101.51-112.2,156.22-66.65,107.72-115.79,228.22-130.75,354.64-14.18,119.91,3.18,245.27,57.95,353.54,13.78,27.24,29.98,53.13,48.29,77.55.57.76,1.87.02,1.3-.76-71.91-95.94-107.47-214.55-110.53-333.75-3.18-123.97,29.67-246.28,83.58-357.26,26.8-55.17,58.75-107.79,94.4-157.68,33.82-47.33,71.19-92.04,104.3-139.89,30.92-44.67,59.02-92.75,72.82-145.72,14.03-53.85,10.05-109.07-9.67-160.99-21.6-56.89-57.3-107.18-92.67-156.18-38.44-53.25-78.68-105.19-120.64-155.71-74.53-89.74-176.02-180.67-176.78-306.41-.66-108.07,60.23-204.48,86.81-306.61,12.9-49.59,16.22-99.32,4.18-149.4-7.66-31.85-17.81-67.11,1.34-96.97,15.87-24.73,50.55-32.66,67.5-4.84,11.25,18.47,11.01,44.91-.62,63.13-16.13,25.28-50.52,31.48-78.2,29.94-54.4-3.02-109.35-28.7-154.63-57.61C100.55,308.9,24.5,210.68,5.06,101.55-.96,67.74.07,33.29,12.1.91c.34-.91-1.11-1.3-1.45-.4h0Z"/>
  </g>
</svg>