<?xml version="1.0" encoding="UTF-8"?>
<svg id="_レイヤー_2" data-name="レイヤー_2" xmlns="http://www.w3.org/2000/svg" width="1920.83" height="874.64" viewBox="0 0 1920.83 874.64">
  <defs>
    <style>
      .cls-1 {
        fill: #d48d95;
      }
    </style>
  </defs>
  <g id="img_x5F_works">
    <path class="cls-1" d="M1920.65,383.34c-24.48-40.07-42.86-81.51-59.17-125.49-15.19-40.95-30.12-82.47-53.24-119.77-39.45-63.65-104.55-116.11-178.34-133.28-28.28-6.58-58.88-7.38-86.14,3.79-29.15,11.95-49.64,36.45-61.98,64.89-18.11,41.76-22.17,87.84-27.47,132.55-5.87,49.49-14.07,98.66-26.9,146.86-22.6,84.87-57.99,177.89-126.29,236.82-34.61,29.86-77.61,47.03-123.15,50.24-43.52,3.07-86.94-5.55-128.79-16.72-83.88-22.37-169.09-59.25-257.68-50.2-86.69,8.85-156.05,64.27-221.57,117.14-67.83,54.74-134.83,112.72-216.56,145.81-89.76,36.35-188.36,38.76-283.8,34.66-22.81-.98-45.6-2.34-68.39-3.72-1.56-.09-1.56,2.33,0,2.43,92.26,5.59,186.32,11.13,277.43-8.23,43.5-9.25,85.34-24.64,124.34-46.02,35.99-19.73,69.33-43.86,101.59-69.13,34.05-26.67,66.99-54.74,101.28-81.12s71.97-54.37,113.1-71.23c42.84-17.56,89.7-22.99,135.57-17.43s85.75,17.37,127.63,29.99c78.04,23.52,162.98,51.89,244.38,27.47,80.78-24.23,131.76-96.09,164.61-169.76,38.17-85.6,56.22-177.15,67.03-269.76,8.73-74.79,23.11-179.09,115.15-190.71,71.73-9.06,146.65,35.98,194.19,85.77,63.5,66.52,81.55,156.11,118.95,237.12,9.33,20.22,20.54,39.25,32.14,58.23.81,1.33,2.92.11,2.1-1.23h0Z"/>
  </g>
</svg>