<?xml version="1.0" encoding="UTF-8"?>
<svg id="_レイヤー_2" data-name="レイヤー_2" xmlns="http://www.w3.org/2000/svg" width="2150.53" height="855.15" viewBox="0 0 2150.53 855.15">
  <defs>
    <style>
      .cls-1 {
        fill: none;
        stroke: #fff;
        stroke-miterlimit: 10;
        stroke-width: 8px;
      }
    </style>
  </defs>
  <g id="_レイヤー_2-2" data-name="_レイヤー_2">
    <path class="cls-1" d="M.13,849.46c337.16,10.56,441.92-31.22,563.73-46.24,264.12-32.57,422.33-140.67,517.13-262.96,82.8-106.81,128.22-216.4,247.94-226.37s143.68,96.13,141.92,148.58c-1.95,58.1-59.61,176.32-151.39,150.01s-85.48-112.34-30.01-199.48,24.67-141.35,13.52-160.9c-11.15-19.55-76.92-46.77-99.27,22.4-33.35,103.2,75.16,125.13,90.86,128.68s42.41,12.79,165.25-10.58,151.17-33.54,331.73-114.24C1970.73,198.27,2147.57,2.68,2147.57,2.68"/>
  </g>
</svg>