<?xml version="1.0" encoding="UTF-8"?>
<svg id="_レイヤー_2" data-name="レイヤー_2" xmlns="http://www.w3.org/2000/svg" width="2430.84" height="1470.67" viewBox="0 0 2430.84 1470.67">
  <defs>
    <style>
      .cls-1 {
        fill: #d48d95;
      }
    </style>
  </defs>
  <g id="img_x5F_about">
    <path class="cls-1" d="M2427.84,1.45c-3.74,122.42-7.86,248-48.74,364.75-36.86,105.26-107.56,197.22-210.18,245.14-46.28,21.61-97.84,32.78-148.92,27.34-52.42-5.59-99.29-29.95-140.88-61.27-78.36-59.01-143.77-142.96-242.11-169.63-104.16-28.25-208.04,18.85-288.03,83.77-88.04,71.45-150.59,165.25-208.87,261.18-111.52,183.58-209.87,386.48-381.44,522.98-189.44,150.72-438.15,178.12-671.8,188.65-28.47,1.28-56.94,2.33-85.42,3.32-1.93.07-1.93,3.07,0,3,231.29-8.08,478.94-18.11,683.11-140.05,190.71-113.9,302.36-312.17,411.57-498.12,57.48-97.88,114.55-198.91,193.3-281.59,76.95-80.79,182.77-156.12,299.84-148.13,112.17,7.66,186.31,94.29,267.59,160.87,37.42,30.65,78.52,58.18,125.69,71,46.61,12.67,96.07,10.32,142.18-3.3,96.28-28.46,178.15-101.69,224.8-189.65,56.51-106.54,71.61-228.68,77.77-347.45,1.6-30.92,2.6-61.86,3.55-92.81.06-1.93-2.94-1.93-3,0h0Z"/>
  </g>
</svg>