<?xml version="1.0" encoding="UTF-8"?>
<svg id="_レイヤー_2" data-name="レイヤー_2" xmlns="http://www.w3.org/2000/svg" width="3131.24" height="1540.54" viewBox="0 0 3131.24 1540.54">
  <defs>
    <style>
      .cls-1 {
        fill: #d48d95;
      }
    </style>
  </defs>
  <g id="img_x5F_about">
    <path class="cls-1" d="M3130.75,181.36c-96.98-82.48-214.61-143.05-339.55-169.18-113.22-23.68-241.19-17.05-334.73,58.04-91.85,73.73-131.09,190.92-182.36,292.65-28.89,57.33-65.15,115.72-125.38,144-59.79,28.07-129.42,22.73-191.26,4.66-128-37.4-230.79-134.34-364.35-156.82-128.09-21.56-252.96,20.49-350.55,103.81-49,41.84-91.19,90.96-131.41,141.1-44.33,55.26-87.36,111.61-129.47,168.57-84.95,114.9-162.65,234.23-242.12,352.88-74.11,110.65-157.44,215.79-274.62,283.16-113.59,65.3-243.3,95.33-371.16,117.96-30.84,5.46-61.76,10.48-92.69,15.45-1.9.31-1.09,3.2.8,2.89,126.57-20.34,254.84-41.46,374.23-89.97,56.5-22.96,110.53-52.19,158.94-89.42s91.74-83.1,130.1-131.56c82.84-104.62,150.09-221.24,226.32-330.63,82.4-118.25,167.72-236.33,261.85-345.59,42.76-49.63,89.55-96.74,144.52-132.87,57.54-37.81,123.28-61.2,191.97-67.01,69.85-5.9,138.62,6.94,202.86,34.47,61.51,26.36,118.07,62.58,178.01,92.08,98.9,48.68,230.83,80.4,323.26.88,45.1-38.8,72.26-93.91,97.49-146.65,25.58-53.49,49.15-108.2,80.13-158.89,32.04-52.43,72.9-99.75,127.1-130.04,55.3-30.91,119.19-42.84,182.06-42.42,129.86.86,259.76,50.1,367.57,120.4,28.06,18.3,54.81,38.47,80.33,60.17,1.46,1.24,3.59-.87,2.12-2.12h0Z"/>
  </g>
</svg>