<?xml version="1.0" encoding="UTF-8"?>
<svg id="_レイヤー_2" data-name="レイヤー_2" xmlns="http://www.w3.org/2000/svg" width="2437.52" height="928.12" viewBox="0 0 2437.52 928.12">
  <defs>
    <style>
      .cls-1 {
        fill: #d48d95;
      }
    </style>
  </defs>
  <g id="img">
    <path class="cls-1" d="M2435.29.05c-21.46,5-44.62,9.89-62.3,23.89-20.83,16.49-24.81,41.54-24.73,66.73.1,31.34.69,60.19-16.5,87.8-16.46,26.43-42.81,45.7-69.64,60.61-112.59,62.58-249.76,68.49-375.45,63.51-31.12-1.23-62.2-3.23-93.27-5.48-24.94-1.81-49.86-4.26-74.78-.69-19.7,2.82-41.65,10.09-52.82,27.91-13.47,21.5-.36,46.09,12.48,64.26,8.97,12.7,19.5,24.63,26.74,38.48,5.87,11.23,13.17,29.46,3.4,40.7-19.97,22.99-56.58-15.61-69.08-29.24-33.46-36.48-74.87-89.78-132.04-74.09-19.87,5.45-35.6,20.52-38.74,41.31-3.41,22.52,8.71,43.77,22.43,60.61,38.04,46.7,101.56,80.74,117.98,142.48,3.93,14.79,3.59,31.66-7.14,43.65s-28.8,14.3-44.15,13.66c-29.74-1.23-58.43-13.31-86.36-22.57-62.34-20.68-124.35-42.7-189.87-50.99-96.32-12.19-207.21,9.19-268.95,90.67-30.05,39.66-45.15,86.79-67.07,130.88-11.02,22.17-24.1,43.62-41.86,61.07-22.1,21.73-50.19,34.86-80.21,41.64s-64.94,6.92-96.98,7.49-62.85-.1-94.21-1.93c-64.07-3.73-127.83-12.33-190.67-25.32-124.03-25.64-244.44-68.23-357.72-124.75-27.48-13.71-54.51-28.27-81.14-43.56-1.99-1.14-3.79,1.93-1.8,3.08,216.95,124.59,465.76,198.91,716.97,196.17,57.55-.63,120.81.09,169.77-34.77,39.46-28.1,59.81-72.84,78.53-115.95,20.46-47.1,42.22-93.52,82.91-126.76,42.08-34.39,96.11-51.7,149.7-56.46,61.04-5.42,121.92,6.31,180.35,23.24,31.92,9.24,63.2,20.36,94.73,30.78,26.09,8.63,52.37,19.29,80.04,21.36,20.71,1.56,45.2-2.18,55.95-22.25s2.74-45.16-7.53-63.98c-14.24-26.08-35.4-47.63-56.8-67.88-22.47-21.27-48.64-41.73-64.09-69.05-16.37-28.94-11.5-65.5,23.21-77.32,32.27-10.99,66.2,5.7,90.15,26.79s39.34,46.04,62.71,65.39c11.91,9.86,30.76,21.47,46.74,14.07,15.05-6.97,13.67-25.78,8.89-38.91-10.31-28.34-36.96-47.56-46.57-76.12-11.86-35.24,19.59-54.88,49.77-59.86,27.71-4.57,55.82-1.19,83.59.79,124.11,8.85,252.36,13.92,373.01-21.95,54.05-16.07,113.97-39.76,151.18-84.14,14.84-17.69,24.77-39.09,27.25-62.14,3.45-32.01-7.53-70.53,15-97.6,16.97-20.4,45.35-26.1,69.91-31.82,2.23-.52,1.29-3.96-.95-3.44h0Z"/>
  </g>
</svg>