<?xml version="1.0" encoding="UTF-8"?>
<svg id="_レイヤー_2" data-name="レイヤー_2" xmlns="http://www.w3.org/2000/svg" viewBox="0 0 3068.19 462.38">
  <defs>
    <style>
      .cls-1 {
        fill: #d48d95;
      }
    </style>
  </defs>
  <g id="img">
    <path class="cls-1" d="M1.88,326.62C131.8,176.89,314.7,86.77,505.12,40.8,606.72,16.27,713.88-.14,818.58,3.07c56.17,1.72,112.01,10.9,164.52,31.3,43.47,16.89,84.03,40.44,122.39,66.81,75.5,51.9,142.84,114.48,216.82,168.41,79.4,57.88,165.21,99.75,263.05,114.83,107.74,16.61,217.43,5.63,325.01-6.66,115.87-13.23,230.95-24.61,347.76-23.19,242.47,2.95,482.31,44.78,719.77,90.51,29.63,5.71,59.25,11.48,88.87,17.26,1.41.28,2.02-1.89.6-2.17-237.76-46.4-476.74-92.9-719.2-105.03-119.39-5.97-238.34-2.05-357.13,11.11-112.1,12.41-224.85,29.3-337.93,22.91-55.87-3.16-111.56-12.37-164.53-30.75-46.68-16.2-90.25-39.78-131.29-67.12-77.59-51.69-146.09-115.41-220.92-170.79-76.65-56.72-159.69-101.34-255.25-114.57-104.72-14.5-214.14-.31-317.29,19.78C375.85,62.33,190.34,138.51,50.38,272.32c-17.53,16.76-34.19,34.38-50.09,52.7-.94,1.09.64,2.69,1.59,1.59h0Z"/>
  </g>
</svg>