<?xml version="1.0" encoding="UTF-8"?>
<svg id="_レイヤー_2" data-name="レイヤー_2" xmlns="http://www.w3.org/2000/svg" viewBox="0 0 2893.04 1888.98">
  <defs>
    <style>
      .cls-1 {
        fill: #d48d95;
      }
    </style>
  </defs>
  <g id="img">
    <path class="cls-1" d="M2892.76,80.37c-73.85-101.85-228.18-99.08-325.95-35.34-131.04,85.43-187.43,247.26-236.74,387.81-59.47,169.52-108.55,344.45-195.11,502.89-75.3,137.82-179.97,264.5-322.26,336.3-78.87,39.8-165.5,62.16-252.68,74.35-43.27,6.05-86.97,10.08-130.64,11.69-42.43,1.56-85.75.09-126.77-11.8-83.29-24.15-132.28-93.88-165.66-169.7-34.07-77.41-70.07-178.66-18.79-256.68,21.44-32.62,57.22-59.23,97.57-59.35,33.22-.1,62.72,17.8,81.15,44.83,35.98,52.77,35.26,125.84,19.71,185.33-38.48,147.15-138.12,268.23-254.07,362.82-126.17,102.93-273.15,179.95-421.66,245.2-163.98,72.05-335.47,127.02-510.78,163.75-42.79,8.96-85.81,16.79-129,23.61-1.9.3-1.09,3.19.8,2.89,182.29-28.76,361.37-76.81,533.47-143.45,158.76-61.47,315.83-136.58,455.67-234.36,123.34-86.25,237.31-195.77,298.96-335.4,26.6-60.25,45.96-126.03,37.3-192.39-6.89-52.75-33.21-110.55-89.9-123.37-65.99-14.93-125.87,42.27-141.64,102.55-21.18,80.99,15.46,170.87,51.25,242.5,35.23,70.52,87.4,128.11,166.35,147.16,39.48,9.52,80.53,10.39,120.92,8.68,43.16-1.83,86.34-5.85,129.11-11.96,86.59-12.37,172.49-34.76,250.86-74.3,71.23-35.94,134.25-86.25,188.09-144.92,112.86-122.99,183.58-276.6,240.06-431.92,32.44-89.19,60.88-179.75,92.4-269.26,28.77-81.69,58.87-164.27,103.59-238.83,39.94-66.59,94.46-129.74,166.64-162.04,62.78-28.1,138.65-34.21,203.31-8.71,32.78,12.92,61.17,34.39,81.87,62.94,1.12,1.55,3.73.05,2.59-1.51h0Z"/>
  </g>
</svg>