<?xml version="1.0" encoding="UTF-8"?>
<svg id="_レイヤー_2" data-name="レイヤー_2" xmlns="http://www.w3.org/2000/svg" viewBox="0 0 3068.92 463.12">
  <defs>
    <style>
      .cls-1 {
        fill: #d48d95;
      }
    </style>
  </defs>
  <g id="img">
    <path class="cls-1" d="M2.51,327.25C132.39,177.57,315.22,87.49,505.59,41.53,607.15,17.01,714.27.61,818.94,3.81c56.14,1.72,111.94,10.89,164.42,31.29,43.44,16.88,83.97,40.43,122.3,66.78,75.5,51.9,142.84,114.48,216.82,168.41,79.42,57.9,165.28,99.78,263.14,114.87,107.78,16.61,217.49,5.64,325.11-6.65,115.87-13.23,230.95-24.61,347.76-23.19,242.44,2.95,482.24,44.77,719.67,90.5,29.63,5.71,59.25,11.48,88.87,17.26,1.89.37,2.69-2.52.8-2.89-237.79-46.41-476.8-92.91-719.3-105.04-119.39-5.97-238.34-2.05-357.13,11.11-112.1,12.41-224.85,29.3-337.93,22.91-55.84-3.15-111.49-12.37-164.43-30.74-46.65-16.19-90.19-39.76-131.2-67.08-77.59-51.69-146.09-115.41-220.92-170.79S977.11,19.16,881.48,5.93c-104.76-14.49-214.2-.31-317.39,19.79C376.05,62.36,190.48,138.57,50.47,272.43c-17.53,16.76-34.19,34.38-50.09,52.7-1.26,1.45.85,3.58,2.12,2.12h0Z"/>
  </g>
</svg>