<?xml version="1.0" encoding="UTF-8"?>
<svg id="_レイヤー_2" data-name="レイヤー_2" xmlns="http://www.w3.org/2000/svg" viewBox="0 0 3067.46 461.64">
  <defs>
    <style>
      .cls-1 {
        fill: #d48d95;
      }
    </style>
  </defs>
  <g id="img">
    <path class="cls-1" d="M1.25,325.98C131.22,176.21,314.18,86.05,504.66,40.07,606.29,15.53,713.48-.88,818.22,2.32c56.2,1.72,112.08,10.9,164.62,31.32,43.5,16.91,84.09,40.46,122.47,66.85,75.5,51.9,142.84,114.48,216.82,168.41,79.38,57.86,165.15,99.72,262.96,114.79,107.7,16.6,217.37,5.61,324.91-6.67,115.87-13.23,230.95-24.61,347.76-23.19,242.5,2.95,482.38,44.79,719.87,90.53,29.63,5.71,59.25,11.48,88.87,17.26.94.18,1.35-1.26.4-1.45-237.73-46.4-476.67-92.89-719.1-105.01-119.39-5.97-238.34-2.05-357.13,11.11-112.1,12.41-224.85,29.3-337.93,22.91-55.9-3.16-111.63-12.38-164.63-30.77-46.71-16.21-90.31-39.8-131.38-67.16-77.59-51.69-146.09-115.41-220.92-170.79-76.59-56.68-159.57-101.28-255.06-114.52-104.68-14.51-214.08-.32-317.19,19.77C375.65,62.31,190.2,138.45,50.28,272.22c-17.53,16.76-34.19,34.38-50.09,52.7-.63.73.43,1.79,1.06,1.06h0Z"/>
  </g>
</svg>